  0
SECTION
  2
HEADER
  9
$ACADVER
  1
AC1014
  9
$HANDSEED
  5
FFFF
  9
$MEASUREMENT
 70
     1
  0
ENDSEC
  0
SECTION
  2
TABLES
  0
TABLE
  2
VPORT
  5
8
330
0
100
AcDbSymbolTable
 70
     4
  0
VPORT
  5
2E
330
8
100
AcDbSymbolTableRecord
100
AcDbViewportTableRecord
  2
*ACTIVE
 70
     0
 10
0.0
 20
0.0
 11
1.0
 21
1.0
 12
210.0
 22
148.5
 13
0.0
 23
0.0
 14
10.0
 24
10.0
 15
10.0
 25
10.0
 16
0.0
 26
0.0
 36
1.0
 17
0.0
 27
0.0
 37
0.0
 40
341.0
 41
1.24
 42
50.0
 43
0.0
 44
0.0
 50
0.0
 51
0.0
 71
     0
 72
   100
 73
     1
 74
     3
 75
     0
 76
     0
 77
     0
 78
     0
  0
ENDTAB
  0
TABLE
  2
LTYPE
  5
5
330
0
100
AcDbSymbolTable
 70
     1
  0
LTYPE
  5
14
330
5
100
AcDbSymbolTableRecord
100
AcDbLinetypeTableRecord
  2
BYBLOCK
 70
     0
  3

 72
    65
 73
     0
 40
0.0
  0
LTYPE
  5
15
330
5
100
AcDbSymbolTableRecord
100
AcDbLinetypeTableRecord
  2
BYLAYER
 70
     0
  3

 72
    65
 73
     0
 40
0.0
  0
LTYPE
  5
16
330
5
100
AcDbSymbolTableRecord
100
AcDbLinetypeTableRecord
  2
CONTINUOUS
 70
     0
  3
Solid line
 72
    65
 73
     0
 40
0.0
  0
ENDTAB
  0
TABLE
  2
LAYER
  5
2
100
AcDbSymbolTable
 70
2
  0
LAYER
  5
50
100
AcDbSymbolTableRecord
100
AcDbLayerTableRecord
  2
0
 70
0
  6
CONTINUOUS
  0
LAYER
  5
51
100
AcDbSymbolTableRecord
100
AcDbLayerTableRecord
  2
Layer_1
 70
0
  6
CONTINUOUS
  0
ENDTAB
  0
TABLE
  2
STYLE
  5
3
330
0
100
AcDbSymbolTable
 70
     1
  0
STYLE
  5
11
330
3
100
AcDbSymbolTableRecord
100
AcDbTextStyleTableRecord
  2
STANDARD
 70
     0
 40
0.0
 41
1.0
 50
0.0
 71
     0
 42
2.5
  3
txt
  4

  0
ENDTAB
  0
TABLE
  2
VIEW
  5
6
330
0
100
AcDbSymbolTable
 70
     0
  0
ENDTAB
  0
TABLE
  2
UCS
  5
7
330
0
100
AcDbSymbolTable
 70
     0
  0
ENDTAB
  0
TABLE
  2
APPID
  5
9
330
0
100
AcDbSymbolTable
 70
     2
  0
APPID
  5
12
330
9
100
AcDbSymbolTableRecord
100
AcDbRegAppTableRecord
  2
ACAD
 70
     0
  0
ENDTAB
  0
TABLE
  2
DIMSTYLE
  5
A
330
0
100
AcDbSymbolTable
 70
     1
  0
DIMSTYLE
105
27
330
A
100
AcDbSymbolTableRecord
100
AcDbDimStyleTableRecord
  2
ISO-25
 70
     0
  3

  4

  5

  6

  7

 40
1.0
 41
2.5
 42
0.625
 43
3.75
 44
1.25
 45
0.0
 46
0.0
 47
0.0
 48
0.0
140
2.5
141
2.5
142
0.0
143
0.03937007874016
144
1.0
145
0.0
146
1.0
147
0.625
 71
     0
 72
     0
 73
     0
 74
     0
 75
     0
 76
     0
 77
     1
 78
     8
170
     0
171
     3
172
     1
173
     0
174
     0
175
     0
176
     0
177
     0
178
     0
270
     2
271
     2
272
     2
273
     2
274
     3
340
11
275
     0
280
     0
281
     0
282
     0
283
     0
284
     8
285
     0
286
     0
287
     3
288
     0
  0
ENDTAB
  0
TABLE
  2
BLOCK_RECORD
  5
1
330
0
100
AcDbSymbolTable
 70
     1
  0
BLOCK_RECORD
  5
1F
330
1
100
AcDbSymbolTableRecord
100
AcDbBlockTableRecord
  2
*MODEL_SPACE
  0
BLOCK_RECORD
  5
1B
330
1
100
AcDbSymbolTableRecord
100
AcDbBlockTableRecord
  2
*PAPER_SPACE
  0
ENDTAB
  0
ENDSEC
  0
SECTION
  2
BLOCKS
  0
BLOCK
  5
20
330
1F
100
AcDbEntity
  8
0
100
AcDbBlockBegin
  2
*MODEL_SPACE
 70
     0
 10
0.0
 20
0.0
 30
0.0
  3
*MODEL_SPACE
  1

  0
ENDBLK
  5
21
330
1F
100
AcDbEntity
  8
0
100
AcDbBlockEnd
  0
BLOCK
  5
1C
330
1B
100
AcDbEntity
 67
     1
  8
0
100
AcDbBlockBegin
  2
*PAPER_SPACE
  1

  0
ENDBLK
  5
1D
330
1B
100
AcDbEntity
 67
     1
  8
0
100
AcDbBlockEnd
  0
ENDSEC
  0
SECTION
  2
ENTITIES
  0
LWPOLYLINE
  5
100
100
AcDbEntity
  8
Layer_1
 62
7
100
AcDbPolyline
 90
2
 70
0
 10
31.142218
 20
3.595539
 30
0.0
 10
31.142218
 20
5.878970
 30
0.0
  0
LWPOLYLINE
  5
101
100
AcDbEntity
  8
Layer_1
 62
7
100
AcDbPolyline
 90
2
 70
0
 10
4.557064
 20
3.570167
 30
0.0
 10
4.557064
 20
5.853655
 30
0.0
  0
LWPOLYLINE
  5
102
100
AcDbEntity
  8
Layer_1
 62
7
100
AcDbPolyline
 90
8
 70
0
 10
21.823449
 20
1.388194
 30
0.0
 10
21.671099
 20
1.235963
 30
0.0
 10
21.671099
 20
0.931474
 30
0.0
 10
21.823449
 20
0.779215
 30
0.0
 10
22.432851
 20
0.779215
 30
0.0
 10
22.585202
 20
0.931474
 30
0.0
 10
22.585202
 20
1.235963
 30
0.0
 10
22.432851
 20
1.388194
 30
0.0
  0
LWPOLYLINE
  5
103
100
AcDbEntity
  8
Layer_1
 62
7
100
AcDbPolyline
 90
4
 70
0
 10
22.585202
 20
1.692655
 30
0.0
 10
21.671099
 20
1.692655
 30
0.0
 10
22.585202
 20
2.301550
 30
0.0
 10
21.671099
 20
2.301550
 30
0.0
  0
LWPOLYLINE
  5
104
100
AcDbEntity
  8
Layer_1
 62
7
100
AcDbPolyline
 90
10
 70
0
 10
21.671099
 20
3.214934
 30
0.0
 10
21.823449
 20
2.910472
 30
0.0
 10
22.128150
 20
2.606011
 30
0.0
 10
22.432851
 20
2.606011
 30
0.0
 10
22.585202
 20
2.758270
 30
0.0
 10
22.585202
 20
3.062703
 30
0.0
 10
22.432851
 20
3.214934
 30
0.0
 10
22.280501
 20
3.214934
 30
0.0
 10
22.128150
 20
3.062703
 30
0.0
 10
22.128150
 20
2.606011
 30
0.0
  0
LWPOLYLINE
  5
105
100
AcDbEntity
  8
Layer_1
 62
7
100
AcDbPolyline
 90
8
 70
0
 10
2.144849
 20
1.261307
 30
0.0
 10
1.992498
 20
1.109076
 30
0.0
 10
1.992498
 20
0.804615
 30
0.0
 10
2.144849
 20
0.652384
 30
0.0
 10
2.754250
 20
0.652384
 30
0.0
 10
2.906601
 20
0.804615
 30
0.0
 10
2.906601
 20
1.109076
 30
0.0
 10
2.754250
 20
1.261307
 30
0.0
  0
LWPOLYLINE
  5
106
100
AcDbEntity
  8
Layer_1
 62
7
100
AcDbPolyline
 90
4
 70
0
 10
2.906601
 20
1.565768
 30
0.0
 10
1.992498
 20
1.565768
 30
0.0
 10
2.906601
 20
2.174719
 30
0.0
 10
1.992498
 20
2.174719
 30
0.0
  0
LWPOLYLINE
  5
107
100
AcDbEntity
  8
Layer_1
 62
7
100
AcDbPolyline
 90
10
 70
0
 10
1.992498
 20
3.088103
 30
0.0
 10
1.992498
 20
2.479152
 30
0.0
 10
2.449550
 20
2.479152
 30
0.0
 10
2.297199
 20
2.783642
 30
0.0
 10
2.297199
 20
2.935872
 30
0.0
 10
2.449550
 20
3.088103
 30
0.0
 10
2.754250
 20
3.088103
 30
0.0
 10
2.906601
 20
2.935872
 30
0.0
 10
2.906601
 20
2.631411
 30
0.0
 10
2.754250
 20
2.479152
 30
0.0
  0
LWPOLYLINE
  5
108
100
AcDbEntity
  8
Layer_1
 62
7
100
AcDbPolyline
 90
7
 70
0
 10
53.639302
 20
34.904504
 30
0.0
 10
53.639302
 20
35.792522
 30
0.0
 10
54.083658
 20
35.792522
 30
0.0
 10
54.230928
 20
35.645363
 30
0.0
 10
54.230928
 20
35.348513
 30
0.0
 10
54.083658
 20
35.201354
 30
0.0
 10
53.639302
 20
35.201354
 30
0.0
  0
LWPOLYLINE
  5
109
100
AcDbEntity
  8
Layer_1
 62
7
100
AcDbPolyline
 90
2
 70
0
 10
53.936386
 20
35.201354
 30
0.0
 10
54.230928
 20
34.904504
 30
0.0
  0
LWPOLYLINE
  5
10a
100
AcDbEntity
  8
Layer_1
 62
7
100
AcDbPolyline
 90
7
 70
0
 10
54.528012
 20
35.792522
 30
0.0
 10
54.528012
 20
34.904504
 30
0.0
 10
54.972368
 20
34.904504
 30
0.0
 10
55.119640
 20
35.051663
 30
0.0
 10
55.119640
 20
35.645363
 30
0.0
 10
54.972368
 20
35.792522
 30
0.0
 10
54.528012
 20
35.792522
 30
0.0
  0
LWPOLYLINE
  5
10b
100
AcDbEntity
  8
Layer_1
 62
7
100
AcDbPolyline
 90
5
 70
0
 10
55.416727
 20
34.904504
 30
0.0
 10
55.711265
 20
34.904504
 30
0.0
 10
55.563996
 20
34.904504
 30
0.0
 10
55.563996
 20
35.792522
 30
0.0
 10
55.416727
 20
35.645363
 30
0.0
  0
LWPOLYLINE
  5
10c
100
AcDbEntity
  8
Layer_1
 62
7
100
AcDbPolyline
 90
5
 70
0
 10
56.155627
 20
34.904504
 30
0.0
 10
56.452708
 20
34.904504
 30
0.0
 10
56.305436
 20
34.904504
 30
0.0
 10
56.305436
 20
35.792522
 30
0.0
 10
56.155627
 20
35.645363
 30
0.0
  0
LWPOLYLINE
  5
10d
100
AcDbEntity
  8
Layer_1
 62
7
100
AcDbPolyline
 90
7
 70
0
 10
4.176188
 20
40.055009
 30
0.0
 10
4.176188
 20
40.943024
 30
0.0
 10
4.620544
 20
40.943024
 30
0.0
 10
4.767817
 20
40.795868
 30
0.0
 10
4.767817
 20
40.499015
 30
0.0
 10
4.620544
 20
40.351859
 30
0.0
 10
4.176188
 20
40.351859
 30
0.0
  0
LWPOLYLINE
  5
10e
100
AcDbEntity
  8
Layer_1
 62
7
100
AcDbPolyline
 90
2
 70
0
 10
4.473272
 20
40.351859
 30
0.0
 10
4.767817
 20
40.055009
 30
0.0
  0
LWPOLYLINE
  5
10f
100
AcDbEntity
  8
Layer_1
 62
7
100
AcDbPolyline
 90
7
 70
0
 10
5.064899
 20
40.055009
 30
0.0
 10
5.064899
 20
40.646174
 30
0.0
 10
5.361983
 20
40.943024
 30
0.0
 10
5.656527
 20
40.646174
 30
0.0
 10
5.656527
 20
40.055009
 30
0.0
 10
5.656527
 20
40.499015
 30
0.0
 10
5.064899
 20
40.499015
 30
0.0
  0
LWPOLYLINE
  5
110
100
AcDbEntity
  8
Layer_1
 62
7
100
AcDbPolyline
 90
5
 70
0
 10
5.953610
 20
40.055009
 30
0.0
 10
6.248155
 20
40.055009
 30
0.0
 10
6.100882
 20
40.055009
 30
0.0
 10
6.100882
 20
40.943024
 30
0.0
 10
5.953610
 20
40.795868
 30
0.0
  0
LWPOLYLINE
  5
111
100
AcDbEntity
  8
Layer_1
 62
7
100
AcDbPolyline
 90
9
 70
0
 10
6.692511
 20
40.795868
 30
0.0
 10
6.842321
 20
40.943024
 30
0.0
 10
7.136865
 20
40.943024
 30
0.0
 10
7.286677
 20
40.795868
 30
0.0
 10
7.286677
 20
40.202162
 30
0.0
 10
7.136865
 20
40.055009
 30
0.0
 10
6.842321
 20
40.055009
 30
0.0
 10
6.692511
 20
40.202162
 30
0.0
 10
6.692511
 20
40.795868
 30
0.0
  0
LWPOLYLINE
  5
112
100
AcDbEntity
  8
Layer_1
 62
7
100
AcDbPolyline
 90
7
 70
0
 10
54.070961
 20
24.755728
 30
0.0
 10
54.070961
 20
25.643746
 30
0.0
 10
54.515317
 20
25.643746
 30
0.0
 10
54.662589
 20
25.496590
 30
0.0
 10
54.662589
 20
25.199740
 30
0.0
 10
54.515317
 20
25.052578
 30
0.0
 10
54.070961
 20
25.052578
 30
0.0
  0
LWPOLYLINE
  5
113
100
AcDbEntity
  8
Layer_1
 62
7
100
AcDbPolyline
 90
2
 70
0
 10
54.368048
 20
25.052578
 30
0.0
 10
54.662589
 20
24.755728
 30
0.0
  0
LWPOLYLINE
  5
114
100
AcDbEntity
  8
Layer_1
 62
7
100
AcDbPolyline
 90
6
 70
0
 10
55.551301
 20
25.643746
 30
0.0
 10
54.959673
 20
25.643746
 30
0.0
 10
54.959673
 20
25.199740
 30
0.0
 10
55.256757
 20
25.199740
 30
0.0
 10
54.959673
 20
25.199740
 30
0.0
 10
54.959673
 20
24.755728
 30
0.0
  0
LWPOLYLINE
  5
115
100
AcDbEntity
  8
Layer_1
 62
7
100
AcDbPolyline
 90
10
 70
0
 10
56.440014
 20
25.643746
 30
0.0
 10
55.848383
 20
25.643746
 30
0.0
 10
55.848383
 20
25.199740
 30
0.0
 10
56.142930
 20
25.346896
 30
0.0
 10
56.292739
 20
25.346896
 30
0.0
 10
56.440014
 20
25.199740
 30
0.0
 10
56.440014
 20
24.902887
 30
0.0
 10
56.292739
 20
24.755728
 30
0.0
 10
55.995655
 20
24.755728
 30
0.0
 10
55.848383
 20
24.902887
 30
0.0
  0
LWPOLYLINE
  5
116
100
AcDbEntity
  8
Layer_1
 62
7
100
AcDbPolyline
 90
7
 70
0
 10
54.070961
 20
57.739245
 30
0.0
 10
54.070961
 20
58.627263
 30
0.0
 10
54.515317
 20
58.627263
 30
0.0
 10
54.662589
 20
58.480110
 30
0.0
 10
54.662589
 20
58.183251
 30
0.0
 10
54.515317
 20
58.036095
 30
0.0
 10
54.070961
 20
58.036095
 30
0.0
  0
LWPOLYLINE
  5
117
100
AcDbEntity
  8
Layer_1
 62
7
100
AcDbPolyline
 90
2
 70
0
 10
54.368048
 20
58.036095
 30
0.0
 10
54.662589
 20
57.739245
 30
0.0
  0
LWPOLYLINE
  5
118
100
AcDbEntity
  8
Layer_1
 62
7
100
AcDbPolyline
 90
7
 70
0
 10
54.959673
 20
58.627263
 30
0.0
 10
54.959673
 20
57.739245
 30
0.0
 10
55.404029
 20
57.739245
 30
0.0
 10
55.551301
 20
57.886402
 30
0.0
 10
55.551301
 20
58.480110
 30
0.0
 10
55.404029
 20
58.627263
 30
0.0
 10
54.959673
 20
58.627263
 30
0.0
  0
LWPOLYLINE
  5
119
100
AcDbEntity
  8
Layer_1
 62
7
100
AcDbPolyline
 90
7
 70
0
 10
56.440014
 20
57.739245
 30
0.0
 10
55.848383
 20
57.739245
 30
0.0
 10
56.440014
 20
58.330413
 30
0.0
 10
56.440014
 20
58.480110
 30
0.0
 10
56.292739
 20
58.627263
 30
0.0
 10
55.995655
 20
58.627263
 30
0.0
 10
55.848383
 20
58.480110
 30
0.0
  0
LWPOLYLINE
  5
11a
100
AcDbEntity
  8
Layer_1
 62
7
100
AcDbPolyline
 90
7
 70
0
 10
51.404830
 20
22.294652
 30
0.0
 10
51.404830
 20
23.182670
 30
0.0
 10
51.849181
 20
23.182670
 30
0.0
 10
51.996456
 20
23.035510
 30
0.0
 10
51.996456
 20
22.738658
 30
0.0
 10
51.849181
 20
22.591501
 30
0.0
 10
51.404830
 20
22.591501
 30
0.0
  0
LWPOLYLINE
  5
11b
100
AcDbEntity
  8
Layer_1
 62
7
100
AcDbPolyline
 90
2
 70
0
 10
51.701912
 20
22.591501
 30
0.0
 10
51.996456
 20
22.294652
 30
0.0
  0
LWPOLYLINE
  5
11c
100
AcDbEntity
  8
Layer_1
 62
7
100
AcDbPolyline
 90
2
 70
0
 10
52.293540
 20
23.182670
 30
0.0
 10
52.885168
 20
22.294652
 30
0.0
  0
LWPOLYLINE
  5
11d
100
AcDbEntity
  8
Layer_1
 62
7
100
AcDbPolyline
 90
2
 70
0
 10
52.885168
 20
23.182670
 30
0.0
 10
52.293540
 20
22.294652
 30
0.0
  0
LWPOLYLINE
  5
11e
100
AcDbEntity
  8
Layer_1
 62
7
100
AcDbPolyline
 90
2
 70
0
 10
53.182252
 20
22.738658
 30
0.0
 10
53.773877
 20
22.738658
 30
0.0
  0
LWPOLYLINE
  5
11f
100
AcDbEntity
  8
Layer_1
 62
7
100
AcDbPolyline
 90
7
 70
0
 10
54.070961
 20
22.294652
 30
0.0
 10
54.070961
 20
23.182670
 30
0.0
 10
54.515317
 20
23.182670
 30
0.0
 10
54.662589
 20
23.035510
 30
0.0
 10
54.662589
 20
22.738658
 30
0.0
 10
54.515317
 20
22.591501
 30
0.0
 10
54.070961
 20
22.591501
 30
0.0
  0
LWPOLYLINE
  5
120
100
AcDbEntity
  8
Layer_1
 62
7
100
AcDbPolyline
 90
2
 70
0
 10
54.365508
 20
22.591501
 30
0.0
 10
54.662589
 20
22.294652
 30
0.0
  0
LWPOLYLINE
  5
121
100
AcDbEntity
  8
Layer_1
 62
7
100
AcDbPolyline
 90
6
 70
0
 10
55.551301
 20
23.182670
 30
0.0
 10
54.959673
 20
23.182670
 30
0.0
 10
54.959673
 20
22.738658
 30
0.0
 10
55.254217
 20
22.738658
 30
0.0
 10
54.959673
 20
22.738658
 30
0.0
 10
54.959673
 20
22.294652
 30
0.0
  0
LWPOLYLINE
  5
122
100
AcDbEntity
  8
Layer_1
 62
7
100
AcDbPolyline
 90
7
 70
0
 10
56.440014
 20
22.294652
 30
0.0
 10
55.845840
 20
22.294652
 30
0.0
 10
56.440014
 20
22.885817
 30
0.0
 10
56.440014
 20
23.035510
 30
0.0
 10
56.290202
 20
23.182670
 30
0.0
 10
55.995655
 20
23.182670
 30
0.0
 10
55.845840
 20
23.035510
 30
0.0
  0
LWPOLYLINE
  5
123
100
AcDbEntity
  8
Layer_1
 62
7
100
AcDbPolyline
 90
13
 70
0
 10
6.989594
 20
3.570167
 30
0.0
 10
6.842321
 20
3.717289
 30
0.0
 10
6.842321
 20
4.014159
 30
0.0
 10
6.989594
 20
4.161338
 30
0.0
 10
7.139405
 20
4.161338
 30
0.0
 10
7.286677
 20
4.014159
 30
0.0
 10
7.286677
 20
3.867008
 30
0.0
 10
7.286677
 20
4.014159
 30
0.0
 10
7.433949
 20
4.161338
 30
0.0
 10
7.583760
 20
4.161338
 30
0.0
 10
7.731032
 20
4.014159
 30
0.0
 10
7.731032
 20
3.717289
 30
0.0
 10
7.583760
 20
3.570167
 30
0.0
  0
LWPOLYLINE
  5
124
100
AcDbEntity
  8
Layer_1
 62
7
100
AcDbPolyline
 90
5
 70
0
 10
7.731032
 20
4.458207
 30
0.0
 10
7.583760
 20
4.458207
 30
0.0
 10
7.583760
 20
4.605330
 30
0.0
 10
7.731032
 20
4.605330
 30
0.0
 10
7.731032
 20
4.458207
 30
0.0
  0
LWPOLYLINE
  5
125
100
AcDbEntity
  8
Layer_1
 62
7
100
AcDbPolyline
 90
13
 70
0
 10
6.989594
 20
5.196501
 30
0.0
 10
6.842321
 20
5.346191
 30
0.0
 10
6.842321
 20
5.640493
 30
0.0
 10
6.989594
 20
5.790211
 30
0.0
 10
7.139405
 20
5.790211
 30
0.0
 10
7.286677
 20
5.640493
 30
0.0
 10
7.286677
 20
5.493370
 30
0.0
 10
7.286677
 20
5.640493
 30
0.0
 10
7.433949
 20
5.790211
 30
0.0
 10
7.583760
 20
5.790211
 30
0.0
 10
7.731032
 20
5.640493
 30
0.0
 10
7.731032
 20
5.346191
 30
0.0
 10
7.583760
 20
5.196501
 30
0.0
  0
LWPOLYLINE
  5
126
100
AcDbEntity
  8
Layer_1
 62
7
100
AcDbPolyline
 90
5
 70
0
 10
6.842321
 20
6.084541
 30
0.0
 10
7.433949
 20
6.084541
 30
0.0
 10
7.731032
 20
6.381382
 30
0.0
 10
7.433949
 20
6.678224
 30
0.0
 10
6.842321
 20
6.678224
 30
0.0
  0
LWPOLYLINE
  5
127
100
AcDbEntity
  8
Layer_1
 62
7
100
AcDbPolyline
 90
7
 70
0
 10
55.848383
 20
65.350829
 30
0.0
 10
55.848383
 20
66.238845
 30
0.0
 10
56.292739
 20
66.238845
 30
0.0
 10
56.440014
 20
66.091688
 30
0.0
 10
56.440014
 20
65.794838
 30
0.0
 10
56.292739
 20
65.647682
 30
0.0
 10
55.848383
 20
65.647682
 30
0.0
  0
LWPOLYLINE
  5
128
100
AcDbEntity
  8
Layer_1
 62
7
100
AcDbPolyline
 90
2
 70
0
 10
56.145464
 20
65.647682
 30
0.0
 10
56.440014
 20
65.350829
 30
0.0
  0
LWPOLYLINE
  5
129
100
AcDbEntity
  8
Layer_1
 62
7
100
AcDbPolyline
 90
3
 70
0
 10
55.848383
 20
68.776042
 30
0.0
 10
55.848383
 20
67.888021
 30
0.0
 10
56.440014
 20
67.888021
 30
0.0
  0
LWPOLYLINE
  5
12a
100
AcDbEntity
  8
Layer_1
 62
7
100
AcDbPolyline
 90
10
 70
0
 10
4.767817
 20
10.273424
 30
0.0
 10
4.620544
 20
10.420575
 30
0.0
 10
4.323460
 20
10.420575
 30
0.0
 10
4.176188
 20
10.273424
 30
0.0
 10
4.176188
 20
9.679713
 30
0.0
 10
4.323460
 20
9.532563
 30
0.0
 10
4.620544
 20
9.532563
 30
0.0
 10
4.767817
 20
9.679713
 30
0.0
 10
4.767817
 20
9.976583
 30
0.0
 10
4.473272
 20
9.976583
 30
0.0
  0
LWPOLYLINE
  5
12b
100
AcDbEntity
  8
Layer_1
 62
7
100
AcDbPolyline
 90
4
 70
0
 10
5.064899
 20
9.532563
 30
0.0
 10
5.064899
 20
10.420575
 30
0.0
 10
5.656527
 20
9.532563
 30
0.0
 10
5.656527
 20
10.420575
 30
0.0
  0
LWPOLYLINE
  5
12c
100
AcDbEntity
  8
Layer_1
 62
7
100
AcDbPolyline
 90
7
 70
0
 10
5.953610
 20
10.420575
 30
0.0
 10
5.953610
 20
9.532563
 30
0.0
 10
6.397966
 20
9.532563
 30
0.0
 10
6.545238
 20
9.679713
 30
0.0
 10
6.545238
 20
10.273424
 30
0.0
 10
6.397966
 20
10.420575
 30
0.0
 10
5.953610
 20
10.420575
 30
0.0
  0
LWPOLYLINE
  5
12d
100
AcDbEntity
  8
Layer_1
 62
7
100
AcDbPolyline
 90
13
 70
0
 10
4.176188
 20
12.810630
 30
0.0
 10
4.323460
 20
12.957781
 30
0.0
 10
4.620544
 20
12.957781
 30
0.0
 10
4.767817
 20
12.810630
 30
0.0
 10
4.767817
 20
12.660940
 30
0.0
 10
4.620544
 20
12.513761
 30
0.0
 10
4.473272
 20
12.513761
 30
0.0
 10
4.620544
 20
12.513761
 30
0.0
 10
4.767817
 20
12.366610
 30
0.0
 10
4.767817
 20
12.216919
 30
0.0
 10
4.620544
 20
12.069769
 30
0.0
 10
4.323460
 20
12.069769
 30
0.0
 10
4.176188
 20
12.216919
 30
0.0
  0
LWPOLYLINE
  5
12e
100
AcDbEntity
  8
Layer_1
 62
7
100
AcDbPolyline
 90
5
 70
0
 10
5.064899
 20
12.069769
 30
0.0
 10
5.064899
 20
12.216919
 30
0.0
 10
5.212171
 20
12.216919
 30
0.0
 10
5.212171
 20
12.069769
 30
0.0
 10
5.064899
 20
12.069769
 30
0.0
  0
LWPOLYLINE
  5
12f
100
AcDbEntity
  8
Layer_1
 62
7
100
AcDbPolyline
 90
13
 70
0
 10
5.803799
 20
12.810630
 30
0.0
 10
5.953610
 20
12.957781
 30
0.0
 10
6.248155
 20
12.957781
 30
0.0
 10
6.397966
 20
12.810630
 30
0.0
 10
6.397966
 20
12.660940
 30
0.0
 10
6.248155
 20
12.513761
 30
0.0
 10
6.100882
 20
12.513761
 30
0.0
 10
6.248155
 20
12.513761
 30
0.0
 10
6.397966
 20
12.366610
 30
0.0
 10
6.397966
 20
12.216919
 30
0.0
 10
6.248155
 20
12.069769
 30
0.0
 10
5.953610
 20
12.069769
 30
0.0
 10
5.803799
 20
12.216919
 30
0.0
  0
LWPOLYLINE
  5
130
100
AcDbEntity
  8
Layer_1
 62
7
100
AcDbPolyline
 90
5
 70
0
 10
6.692511
 20
12.957781
 30
0.0
 10
6.692511
 20
12.366610
 30
0.0
 10
6.989594
 20
12.069769
 30
0.0
 10
7.286677
 20
12.366610
 30
0.0
 10
7.286677
 20
12.957781
 30
0.0
  0
LWPOLYLINE
  5
131
100
AcDbEntity
  8
Layer_1
 62
7
100
AcDbPolyline
 90
7
 70
0
 10
4.176188
 20
60.276440
 30
0.0
 10
4.176188
 20
61.164458
 30
0.0
 10
4.620544
 20
61.164458
 30
0.0
 10
4.767817
 20
61.017299
 30
0.0
 10
4.767817
 20
60.720449
 30
0.0
 10
4.620544
 20
60.573293
 30
0.0
 10
4.176188
 20
60.573293
 30
0.0
  0
LWPOLYLINE
  5
132
100
AcDbEntity
  8
Layer_1
 62
7
100
AcDbPolyline
 90
2
 70
0
 10
4.473272
 20
60.573293
 30
0.0
 10
4.767817
 20
60.276440
 30
0.0
  0
LWPOLYLINE
  5
133
100
AcDbEntity
  8
Layer_1
 62
7
100
AcDbPolyline
 90
12
 70
0
 10
5.064899
 20
61.164458
 30
0.0
 10
5.064899
 20
60.276440
 30
0.0
 10
5.509255
 20
60.276440
 30
0.0
 10
5.656527
 20
60.423599
 30
0.0
 10
5.656527
 20
60.573293
 30
0.0
 10
5.509255
 20
60.720449
 30
0.0
 10
5.064899
 20
60.720449
 30
0.0
 10
5.509255
 20
60.720449
 30
0.0
 10
5.656527
 20
60.867605
 30
0.0
 10
5.656527
 20
61.017299
 30
0.0
 10
5.509255
 20
61.164458
 30
0.0
 10
5.064899
 20
61.164458
 30
0.0
  0
LWPOLYLINE
  5
134
100
AcDbEntity
  8
Layer_1
 62
7
100
AcDbPolyline
 90
13
 70
0
 10
5.953610
 20
61.017299
 30
0.0
 10
6.100882
 20
61.164458
 30
0.0
 10
6.397966
 20
61.164458
 30
0.0
 10
6.545238
 20
61.017299
 30
0.0
 10
6.545238
 20
60.867605
 30
0.0
 10
6.397966
 20
60.720449
 30
0.0
 10
6.248155
 20
60.720449
 30
0.0
 10
6.397966
 20
60.720449
 30
0.0
 10
6.545238
 20
60.573293
 30
0.0
 10
6.545238
 20
60.423599
 30
0.0
 10
6.397966
 20
60.276440
 30
0.0
 10
6.100882
 20
60.276440
 30
0.0
 10
5.953610
 20
60.423599
 30
0.0
  0
LWPOLYLINE
  5
135
100
AcDbEntity
  8
Layer_1
 62
7
100
AcDbPolyline
 90
7
 70
0
 10
4.176188
 20
62.813635
 30
0.0
 10
4.176188
 20
63.701653
 30
0.0
 10
4.620544
 20
63.701653
 30
0.0
 10
4.767817
 20
63.554496
 30
0.0
 10
4.767817
 20
63.257644
 30
0.0
 10
4.620544
 20
63.110487
 30
0.0
 10
4.176188
 20
63.110487
 30
0.0
  0
LWPOLYLINE
  5
136
100
AcDbEntity
  8
Layer_1
 62
7
100
AcDbPolyline
 90
2
 70
0
 10
4.473272
 20
63.110487
 30
0.0
 10
4.767817
 20
62.813635
 30
0.0
  0
LWPOLYLINE
  5
137
100
AcDbEntity
  8
Layer_1
 62
7
100
AcDbPolyline
 90
12
 70
0
 10
5.064899
 20
63.701653
 30
0.0
 10
5.064899
 20
62.813635
 30
0.0
 10
5.509255
 20
62.813635
 30
0.0
 10
5.656527
 20
62.960794
 30
0.0
 10
5.656527
 20
63.110487
 30
0.0
 10
5.509255
 20
63.257644
 30
0.0
 10
5.064899
 20
63.257644
 30
0.0
 10
5.509255
 20
63.257644
 30
0.0
 10
5.656527
 20
63.404803
 30
0.0
 10
5.656527
 20
63.554496
 30
0.0
 10
5.509255
 20
63.701653
 30
0.0
 10
5.064899
 20
63.701653
 30
0.0
  0
LWPOLYLINE
  5
138
100
AcDbEntity
  8
Layer_1
 62
7
100
AcDbPolyline
 90
7
 70
0
 10
6.545238
 20
62.813635
 30
0.0
 10
5.953610
 20
62.813635
 30
0.0
 10
6.545238
 20
63.404803
 30
0.0
 10
6.545238
 20
63.554496
 30
0.0
 10
6.397966
 20
63.701653
 30
0.0
 10
6.100882
 20
63.701653
 30
0.0
 10
5.953610
 20
63.554496
 30
0.0
  0
LWPOLYLINE
  5
139
100
AcDbEntity
  8
Layer_1
 62
7
100
AcDbPolyline
 90
4
 70
0
 10
55.848383
 20
73.850429
 30
0.0
 10
56.440014
 20
73.850429
 30
0.0
 10
56.142930
 20
73.850429
 30
0.0
 10
56.142930
 20
72.962411
 30
0.0
  0
LWPOLYLINE
  5
13a
100
AcDbEntity
  8
Layer_1
 62
7
100
AcDbPolyline
 90
12
 70
0
 10
55.551301
 20
73.703270
 30
0.0
 10
55.404029
 20
73.850429
 30
0.0
 10
55.106943
 20
73.850429
 30
0.0
 10
54.959673
 20
73.703270
 30
0.0
 10
54.959673
 20
73.553576
 30
0.0
 10
55.106943
 20
73.406417
 30
0.0
 10
55.404029
 20
73.406417
 30
0.0
 10
55.551301
 20
73.259261
 30
0.0
 10
55.551301
 20
73.109567
 30
0.0
 10
55.404029
 20
72.962411
 30
0.0
 10
55.106943
 20
72.962411
 30
0.0
 10
54.959673
 20
73.109567
 30
0.0
  0
LWPOLYLINE
  5
13b
100
AcDbEntity
  8
Layer_1
 62
7
100
AcDbPolyline
 90
2
 70
0
 10
54.368048
 20
73.259261
 30
0.0
 10
54.662589
 20
72.962411
 30
0.0
  0
LWPOLYLINE
  5
13c
100
AcDbEntity
  8
Layer_1
 62
7
100
AcDbPolyline
 90
7
 70
0
 10
54.070961
 20
72.962411
 30
0.0
 10
54.070961
 20
73.850429
 30
0.0
 10
54.515317
 20
73.850429
 30
0.0
 10
54.662589
 20
73.703270
 30
0.0
 10
54.662589
 20
73.406417
 30
0.0
 10
54.515317
 20
73.259261
 30
0.0
 10
54.070961
 20
73.259261
 30
0.0
  0
LWPOLYLINE
  5
13d
100
AcDbEntity
  8
Layer_1
 62
7
100
AcDbPolyline
 90
7
 70
0
 10
4.176188
 20
50.127664
 30
0.0
 10
4.176188
 20
51.015682
 30
0.0
 10
4.620544
 20
51.015682
 30
0.0
 10
4.767817
 20
50.868526
 30
0.0
 10
4.767817
 20
50.571676
 30
0.0
 10
4.620544
 20
50.424517
 30
0.0
 10
4.176188
 20
50.424517
 30
0.0
  0
LWPOLYLINE
  5
13e
100
AcDbEntity
  8
Layer_1
 62
7
100
AcDbPolyline
 90
2
 70
0
 10
4.473272
 20
50.424517
 30
0.0
 10
4.767817
 20
50.127664
 30
0.0
  0
LWPOLYLINE
  5
13f
100
AcDbEntity
  8
Layer_1
 62
7
100
AcDbPolyline
 90
4
 70
0
 10
5.656527
 20
51.015682
 30
0.0
 10
5.064899
 20
51.015682
 30
0.0
 10
5.064899
 20
50.127664
 30
0.0
 10
5.656527
 20
50.127664
 30
0.0
  0
LWPOLYLINE
  5
140
100
AcDbEntity
  8
Layer_1
 62
7
100
AcDbPolyline
 90
2
 70
0
 10
5.064899
 20
50.571676
 30
0.0
 10
5.361983
 20
50.571676
 30
0.0
  0
LWPOLYLINE
  5
141
100
AcDbEntity
  8
Layer_1
 62
7
100
AcDbPolyline
 90
15
 70
0
 10
5.953610
 20
50.868526
 30
0.0
 10
6.100882
 20
51.015682
 30
0.0
 10
6.397966
 20
51.015682
 30
0.0
 10
6.545238
 20
50.868526
 30
0.0
 10
6.545238
 20
50.718832
 30
0.0
 10
6.397966
 20
50.571676
 30
0.0
 10
6.545238
 20
50.424517
 30
0.0
 10
6.545238
 20
50.274826
 30
0.0
 10
6.397966
 20
50.127664
 30
0.0
 10
6.100882
 20
50.127664
 30
0.0
 10
5.953610
 20
50.274826
 30
0.0
 10
5.953610
 20
50.424517
 30
0.0
 10
6.100882
 20
50.571676
 30
0.0
 10
5.953610
 20
50.718832
 30
0.0
 10
5.953610
 20
50.868526
 30
0.0
  0
LWPOLYLINE
  5
142
100
AcDbEntity
  8
Layer_1
 62
7
100
AcDbPolyline
 90
2
 70
0
 10
6.100882
 20
50.571676
 30
0.0
 10
6.397966
 20
50.571676
 30
0.0
  0
LWPOLYLINE
  5
143
100
AcDbEntity
  8
Layer_1
 62
7
100
AcDbPolyline
 90
7
 70
0
 10
4.176188
 20
55.202053
 30
0.0
 10
4.176188
 20
56.090071
 30
0.0
 10
4.620544
 20
56.090071
 30
0.0
 10
4.767817
 20
55.942915
 30
0.0
 10
4.767817
 20
55.646062
 30
0.0
 10
4.620544
 20
55.498909
 30
0.0
 10
4.176188
 20
55.498909
 30
0.0
  0
LWPOLYLINE
  5
144
100
AcDbEntity
  8
Layer_1
 62
7
100
AcDbPolyline
 90
2
 70
0
 10
4.473272
 20
55.498909
 30
0.0
 10
4.767817
 20
55.202053
 30
0.0
  0
LWPOLYLINE
  5
145
100
AcDbEntity
  8
Layer_1
 62
7
100
AcDbPolyline
 90
12
 70
0
 10
5.064899
 20
56.090071
 30
0.0
 10
5.064899
 20
55.202053
 30
0.0
 10
5.509255
 20
55.202053
 30
0.0
 10
5.656527
 20
55.349213
 30
0.0
 10
5.656527
 20
55.498909
 30
0.0
 10
5.509255
 20
55.646062
 30
0.0
 10
5.064899
 20
55.646062
 30
0.0
 10
5.509255
 20
55.646062
 30
0.0
 10
5.656527
 20
55.793219
 30
0.0
 10
5.656527
 20
55.942915
 30
0.0
 10
5.509255
 20
56.090071
 30
0.0
 10
5.064899
 20
56.090071
 30
0.0
  0
LWPOLYLINE
  5
146
100
AcDbEntity
  8
Layer_1
 62
7
100
AcDbPolyline
 90
10
 70
0
 10
6.545238
 20
56.090071
 30
0.0
 10
5.953610
 20
56.090071
 30
0.0
 10
5.953610
 20
55.646062
 30
0.0
 10
6.248155
 20
55.793219
 30
0.0
 10
6.397966
 20
55.793219
 30
0.0
 10
6.545238
 20
55.646062
 30
0.0
 10
6.545238
 20
55.349213
 30
0.0
 10
6.397966
 20
55.202053
 30
0.0
 10
6.100882
 20
55.202053
 30
0.0
 10
5.953610
 20
55.349213
 30
0.0
  0
LWPOLYLINE
  5
147
100
AcDbEntity
  8
Layer_1
 62
7
100
AcDbPolyline
 90
7
 70
0
 10
4.176188
 20
57.739245
 30
0.0
 10
4.176188
 20
58.627263
 30
0.0
 10
4.620544
 20
58.627263
 30
0.0
 10
4.767817
 20
58.480110
 30
0.0
 10
4.767817
 20
58.183251
 30
0.0
 10
4.620544
 20
58.036095
 30
0.0
 10
4.176188
 20
58.036095
 30
0.0
  0
LWPOLYLINE
  5
148
100
AcDbEntity
  8
Layer_1
 62
7
100
AcDbPolyline
 90
2
 70
0
 10
4.473272
 20
58.036095
 30
0.0
 10
4.767817
 20
57.739245
 30
0.0
  0
LWPOLYLINE
  5
149
100
AcDbEntity
  8
Layer_1
 62
7
100
AcDbPolyline
 90
12
 70
0
 10
5.064899
 20
58.627263
 30
0.0
 10
5.064899
 20
57.739245
 30
0.0
 10
5.509255
 20
57.739245
 30
0.0
 10
5.656527
 20
57.886402
 30
0.0
 10
5.656527
 20
58.036095
 30
0.0
 10
5.509255
 20
58.183251
 30
0.0
 10
5.064899
 20
58.183251
 30
0.0
 10
5.509255
 20
58.183251
 30
0.0
 10
5.656527
 20
58.330413
 30
0.0
 10
5.656527
 20
58.480110
 30
0.0
 10
5.509255
 20
58.627263
 30
0.0
 10
5.064899
 20
58.627263
 30
0.0
  0
LWPOLYLINE
  5
14a
100
AcDbEntity
  8
Layer_1
 62
7
100
AcDbPolyline
 90
4
 70
0
 10
6.397966
 20
57.739245
 30
0.0
 10
6.397966
 20
58.627263
 30
0.0
 10
5.953610
 20
58.183251
 30
0.0
 10
6.545238
 20
58.183251
 30
0.0
  0
LWPOLYLINE
  5
14b
100
AcDbEntity
  8
Layer_1
 62
7
100
AcDbPolyline
 90
7
 70
0
 10
4.176188
 20
45.053277
 30
0.0
 10
4.176188
 20
45.941295
 30
0.0
 10
4.620544
 20
45.941295
 30
0.0
 10
4.767817
 20
45.794142
 30
0.0
 10
4.767817
 20
45.497289
 30
0.0
 10
4.620544
 20
45.350130
 30
0.0
 10
4.176188
 20
45.350130
 30
0.0
  0
LWPOLYLINE
  5
14c
100
AcDbEntity
  8
Layer_1
 62
7
100
AcDbPolyline
 90
2
 70
0
 10
4.473272
 20
45.350130
 30
0.0
 10
4.767817
 20
45.053277
 30
0.0
  0
LWPOLYLINE
  5
14d
100
AcDbEntity
  8
Layer_1
 62
7
100
AcDbPolyline
 90
7
 70
0
 10
5.064899
 20
45.053277
 30
0.0
 10
5.064899
 20
45.644445
 30
0.0
 10
5.361983
 20
45.941295
 30
0.0
 10
5.656527
 20
45.644445
 30
0.0
 10
5.656527
 20
45.053277
 30
0.0
 10
5.656527
 20
45.497289
 30
0.0
 10
5.064899
 20
45.497289
 30
0.0
  0
LWPOLYLINE
  5
14e
100
AcDbEntity
  8
Layer_1
 62
7
100
AcDbPolyline
 90
5
 70
0
 10
5.953610
 20
45.053277
 30
0.0
 10
6.248155
 20
45.053277
 30
0.0
 10
6.100882
 20
45.053277
 30
0.0
 10
6.100882
 20
45.941295
 30
0.0
 10
5.953610
 20
45.794142
 30
0.0
  0
LWPOLYLINE
  5
14f
100
AcDbEntity
  8
Layer_1
 62
7
100
AcDbPolyline
 90
4
 70
0
 10
7.136865
 20
45.053277
 30
0.0
 10
7.136865
 20
45.941295
 30
0.0
 10
6.692511
 20
45.497289
 30
0.0
 10
7.286677
 20
45.497289
 30
0.0
  0
LWPOLYLINE
  5
150
100
AcDbEntity
  8
Layer_1
 62
7
100
AcDbPolyline
 90
7
 70
0
 10
4.176188
 20
47.590472
 30
0.0
 10
4.176188
 20
48.478490
 30
0.0
 10
4.620544
 20
48.478490
 30
0.0
 10
4.767817
 20
48.331328
 30
0.0
 10
4.767817
 20
48.034478
 30
0.0
 10
4.620544
 20
47.887322
 30
0.0
 10
4.176188
 20
47.887322
 30
0.0
  0
LWPOLYLINE
  5
151
100
AcDbEntity
  8
Layer_1
 62
7
100
AcDbPolyline
 90
2
 70
0
 10
4.473272
 20
47.887322
 30
0.0
 10
4.767817
 20
47.590472
 30
0.0
  0
LWPOLYLINE
  5
152
100
AcDbEntity
  8
Layer_1
 62
7
100
AcDbPolyline
 90
4
 70
0
 10
5.656527
 20
48.478490
 30
0.0
 10
5.064899
 20
48.478490
 30
0.0
 10
5.064899
 20
47.590472
 30
0.0
 10
5.656527
 20
47.590472
 30
0.0
  0
LWPOLYLINE
  5
153
100
AcDbEntity
  8
Layer_1
 62
7
100
AcDbPolyline
 90
2
 70
0
 10
5.064899
 20
48.034478
 30
0.0
 10
5.361983
 20
48.034478
 30
0.0
  0
LWPOLYLINE
  5
154
100
AcDbEntity
  8
Layer_1
 62
7
100
AcDbPolyline
 90
11
 70
0
 10
5.953610
 20
47.737628
 30
0.0
 10
6.100882
 20
47.590472
 30
0.0
 10
6.397966
 20
47.590472
 30
0.0
 10
6.545238
 20
47.737628
 30
0.0
 10
6.545238
 20
48.331328
 30
0.0
 10
6.397966
 20
48.478490
 30
0.0
 10
6.100882
 20
48.478490
 30
0.0
 10
5.953610
 20
48.331328
 30
0.0
 10
5.953610
 20
48.181637
 30
0.0
 10
6.100882
 20
48.034478
 30
0.0
 10
6.545238
 20
48.034478
 30
0.0
  0
LWPOLYLINE
  5
155
100
AcDbEntity
  8
Layer_1
 62
7
100
AcDbPolyline
 90
7
 70
0
 10
4.176188
 20
29.830115
 30
0.0
 10
4.176188
 20
30.718133
 30
0.0
 10
4.620544
 20
30.718133
 30
0.0
 10
4.767817
 20
30.570976
 30
0.0
 10
4.767817
 20
30.274127
 30
0.0
 10
4.620544
 20
30.126967
 30
0.0
 10
4.176188
 20
30.126967
 30
0.0
  0
LWPOLYLINE
  5
156
100
AcDbEntity
  8
Layer_1
 62
7
100
AcDbPolyline
 90
2
 70
0
 10
4.473272
 20
30.126967
 30
0.0
 10
4.767817
 20
29.830115
 30
0.0
  0
LWPOLYLINE
  5
157
100
AcDbEntity
  8
Layer_1
 62
7
100
AcDbPolyline
 90
6
 70
0
 10
5.656527
 20
30.718133
 30
0.0
 10
5.064899
 20
30.718133
 30
0.0
 10
5.064899
 20
30.274127
 30
0.0
 10
5.361983
 20
30.274127
 30
0.0
 10
5.064899
 20
30.274127
 30
0.0
 10
5.064899
 20
29.830115
 30
0.0
  0
LWPOLYLINE
  5
158
100
AcDbEntity
  8
Layer_1
 62
7
100
AcDbPolyline
 90
13
 70
0
 10
5.953610
 20
30.570976
 30
0.0
 10
6.100882
 20
30.718133
 30
0.0
 10
6.397966
 20
30.718133
 30
0.0
 10
6.545238
 20
30.570976
 30
0.0
 10
6.545238
 20
30.421280
 30
0.0
 10
6.397966
 20
30.274127
 30
0.0
 10
6.248155
 20
30.274127
 30
0.0
 10
6.397966
 20
30.274127
 30
0.0
 10
6.545238
 20
30.126967
 30
0.0
 10
6.545238
 20
29.977274
 30
0.0
 10
6.397966
 20
29.830115
 30
0.0
 10
6.100882
 20
29.830115
 30
0.0
 10
5.953610
 20
29.977274
 30
0.0
  0
LWPOLYLINE
  5
159
100
AcDbEntity
  8
Layer_1
 62
7
100
AcDbPolyline
 90
7
 70
0
 10
4.176188
 20
32.367310
 30
0.0
 10
4.176188
 20
33.255330
 30
0.0
 10
4.620544
 20
33.255330
 30
0.0
 10
4.767817
 20
33.108171
 30
0.0
 10
4.767817
 20
32.811316
 30
0.0
 10
4.620544
 20
32.664159
 30
0.0
 10
4.176188
 20
32.664159
 30
0.0
  0
LWPOLYLINE
  5
15a
100
AcDbEntity
  8
Layer_1
 62
7
100
AcDbPolyline
 90
2
 70
0
 10
4.473272
 20
32.664159
 30
0.0
 10
4.767817
 20
32.367310
 30
0.0
  0
LWPOLYLINE
  5
15b
100
AcDbEntity
  8
Layer_1
 62
7
100
AcDbPolyline
 90
12
 70
0
 10
5.064899
 20
33.255330
 30
0.0
 10
5.064899
 20
32.367310
 30
0.0
 10
5.509255
 20
32.367310
 30
0.0
 10
5.656527
 20
32.514466
 30
0.0
 10
5.656527
 20
32.664159
 30
0.0
 10
5.509255
 20
32.811316
 30
0.0
 10
5.064899
 20
32.811316
 30
0.0
 10
5.509255
 20
32.811316
 30
0.0
 10
5.656527
 20
32.958475
 30
0.0
 10
5.656527
 20
33.108171
 30
0.0
 10
5.509255
 20
33.255330
 30
0.0
 10
5.064899
 20
33.255330
 30
0.0
  0
LWPOLYLINE
  5
15c
100
AcDbEntity
  8
Layer_1
 62
7
100
AcDbPolyline
 90
5
 70
0
 10
5.953610
 20
33.255330
 30
0.0
 10
6.545238
 20
33.255330
 30
0.0
 10
6.545238
 20
33.108171
 30
0.0
 10
5.953610
 20
32.514466
 30
0.0
 10
5.953610
 20
32.367310
 30
0.0
  0
LWPOLYLINE
  5
15d
100
AcDbEntity
  8
Layer_1
 62
7
100
AcDbPolyline
 90
7
 70
0
 10
4.176188
 20
34.904504
 30
0.0
 10
4.176188
 20
35.792522
 30
0.0
 10
4.620544
 20
35.792522
 30
0.0
 10
4.767817
 20
35.645363
 30
0.0
 10
4.767817
 20
35.348513
 30
0.0
 10
4.620544
 20
35.201354
 30
0.0
 10
4.176188
 20
35.201354
 30
0.0
  0
LWPOLYLINE
  5
15e
100
AcDbEntity
  8
Layer_1
 62
7
100
AcDbPolyline
 90
2
 70
0
 10
4.473272
 20
35.201354
 30
0.0
 10
4.767817
 20
34.904504
 30
0.0
  0
LWPOLYLINE
  5
15f
100
AcDbEntity
  8
Layer_1
 62
7
100
AcDbPolyline
 90
12
 70
0
 10
5.064899
 20
35.792522
 30
0.0
 10
5.064899
 20
34.904504
 30
0.0
 10
5.509255
 20
34.904504
 30
0.0
 10
5.656527
 20
35.051663
 30
0.0
 10
5.656527
 20
35.201354
 30
0.0
 10
5.509255
 20
35.348513
 30
0.0
 10
5.064899
 20
35.348513
 30
0.0
 10
5.509255
 20
35.348513
 30
0.0
 10
5.656527
 20
35.495669
 30
0.0
 10
5.656527
 20
35.645363
 30
0.0
 10
5.509255
 20
35.792522
 30
0.0
 10
5.064899
 20
35.792522
 30
0.0
  0
LWPOLYLINE
  5
160
100
AcDbEntity
  8
Layer_1
 62
7
100
AcDbPolyline
 90
10
 70
0
 10
6.545238
 20
35.792522
 30
0.0
 10
6.248155
 20
35.645363
 30
0.0
 10
5.953610
 20
35.348513
 30
0.0
 10
5.953610
 20
35.051663
 30
0.0
 10
6.100882
 20
34.904504
 30
0.0
 10
6.397966
 20
34.904504
 30
0.0
 10
6.545238
 20
35.051663
 30
0.0
 10
6.545238
 20
35.201354
 30
0.0
 10
6.397966
 20
35.348513
 30
0.0
 10
5.953610
 20
35.348513
 30
0.0
  0
LWPOLYLINE
  5
161
100
AcDbEntity
  8
Layer_1
 62
7
100
AcDbPolyline
 90
7
 70
0
 10
4.176188
 20
37.441696
 30
0.0
 10
4.176188
 20
38.329714
 30
0.0
 10
4.620544
 20
38.329714
 30
0.0
 10
4.767817
 20
38.182555
 30
0.0
 10
4.767817
 20
37.885705
 30
0.0
 10
4.620544
 20
37.738549
 30
0.0
 10
4.176188
 20
37.738549
 30
0.0
  0
LWPOLYLINE
  5
162
100
AcDbEntity
  8
Layer_1
 62
7
100
AcDbPolyline
 90
2
 70
0
 10
4.473272
 20
37.738549
 30
0.0
 10
4.767817
 20
37.441696
 30
0.0
  0
LWPOLYLINE
  5
163
100
AcDbEntity
  8
Layer_1
 62
7
100
AcDbPolyline
 90
8
 70
0
 10
5.656527
 20
38.182555
 30
0.0
 10
5.509255
 20
38.329714
 30
0.0
 10
5.212171
 20
38.329714
 30
0.0
 10
5.064899
 20
38.182555
 30
0.0
 10
5.064899
 20
37.588855
 30
0.0
 10
5.212171
 20
37.441696
 30
0.0
 10
5.509255
 20
37.441696
 30
0.0
 10
5.656527
 20
37.588855
 30
0.0
  0
LWPOLYLINE
  5
164
100
AcDbEntity
  8
Layer_1
 62
7
100
AcDbPolyline
 90
4
 70
0
 10
6.397966
 20
37.441696
 30
0.0
 10
6.397966
 20
38.329714
 30
0.0
 10
5.953610
 20
37.885705
 30
0.0
 10
6.545238
 20
37.885705
 30
0.0
  0
LWPOLYLINE
  5
165
100
AcDbEntity
  8
Layer_1
 62
7
100
AcDbPolyline
 90
7
 70
0
 10
54.070961
 20
52.664859
 30
0.0
 10
54.070961
 20
53.552879
 30
0.0
 10
54.515317
 20
53.552879
 30
0.0
 10
54.662589
 20
53.405720
 30
0.0
 10
54.662589
 20
53.108868
 30
0.0
 10
54.515317
 20
52.961711
 30
0.0
 10
54.070961
 20
52.961711
 30
0.0
  0
LWPOLYLINE
  5
166
100
AcDbEntity
  8
Layer_1
 62
7
100
AcDbPolyline
 90
2
 70
0
 10
54.368048
 20
52.961711
 30
0.0
 10
54.662589
 20
52.664859
 30
0.0
  0
LWPOLYLINE
  5
167
100
AcDbEntity
  8
Layer_1
 62
7
100
AcDbPolyline
 90
7
 70
0
 10
54.959673
 20
52.664859
 30
0.0
 10
54.959673
 20
53.256030
 30
0.0
 10
55.256757
 20
53.552879
 30
0.0
 10
55.551301
 20
53.256030
 30
0.0
 10
55.551301
 20
52.664859
 30
0.0
 10
55.551301
 20
53.108868
 30
0.0
 10
54.959673
 20
53.108868
 30
0.0
  0
LWPOLYLINE
  5
168
100
AcDbEntity
  8
Layer_1
 62
7
100
AcDbPolyline
 90
9
 70
0
 10
55.848383
 20
53.405720
 30
0.0
 10
55.995655
 20
53.552879
 30
0.0
 10
56.292739
 20
53.552879
 30
0.0
 10
56.440014
 20
53.405720
 30
0.0
 10
56.440014
 20
52.812015
 30
0.0
 10
56.292739
 20
52.664859
 30
0.0
 10
55.995655
 20
52.664859
 30
0.0
 10
55.848383
 20
52.812015
 30
0.0
 10
55.848383
 20
53.405720
 30
0.0
  0
LWPOLYLINE
  5
169
100
AcDbEntity
  8
Layer_1
 62
7
100
AcDbPolyline
 90
7
 70
0
 10
54.070961
 20
55.202053
 30
0.0
 10
54.070961
 20
56.090071
 30
0.0
 10
54.515317
 20
56.090071
 30
0.0
 10
54.662589
 20
55.942915
 30
0.0
 10
54.662589
 20
55.646062
 30
0.0
 10
54.515317
 20
55.498909
 30
0.0
 10
54.070961
 20
55.498909
 30
0.0
  0
LWPOLYLINE
  5
16a
100
AcDbEntity
  8
Layer_1
 62
7
100
AcDbPolyline
 90
2
 70
0
 10
54.368048
 20
55.498909
 30
0.0
 10
54.662589
 20
55.202053
 30
0.0
  0
LWPOLYLINE
  5
16b
100
AcDbEntity
  8
Layer_1
 62
7
100
AcDbPolyline
 90
7
 70
0
 10
54.959673
 20
56.090071
 30
0.0
 10
54.959673
 20
55.202053
 30
0.0
 10
55.404029
 20
55.202053
 30
0.0
 10
55.551301
 20
55.349213
 30
0.0
 10
55.551301
 20
55.942915
 30
0.0
 10
55.404029
 20
56.090071
 30
0.0
 10
54.959673
 20
56.090071
 30
0.0
  0
LWPOLYLINE
  5
16c
100
AcDbEntity
  8
Layer_1
 62
7
100
AcDbPolyline
 90
13
 70
0
 10
55.848383
 20
55.942915
 30
0.0
 10
55.995655
 20
56.090071
 30
0.0
 10
56.292739
 20
56.090071
 30
0.0
 10
56.440014
 20
55.942915
 30
0.0
 10
56.440014
 20
55.793219
 30
0.0
 10
56.292739
 20
55.646062
 30
0.0
 10
56.142930
 20
55.646062
 30
0.0
 10
56.292739
 20
55.646062
 30
0.0
 10
56.440014
 20
55.498909
 30
0.0
 10
56.440014
 20
55.349213
 30
0.0
 10
56.292739
 20
55.202053
 30
0.0
 10
55.995655
 20
55.202053
 30
0.0
 10
55.848383
 20
55.349213
 30
0.0
  0
LWPOLYLINE
  5
16d
100
AcDbEntity
  8
Layer_1
 62
7
100
AcDbPolyline
 90
7
 70
0
 10
54.350271
 20
60.276440
 30
0.0
 10
54.350271
 20
61.164458
 30
0.0
 10
54.794627
 20
61.164458
 30
0.0
 10
54.941899
 20
61.017299
 30
0.0
 10
54.941899
 20
60.720449
 30
0.0
 10
54.794627
 20
60.573293
 30
0.0
 10
54.350271
 20
60.573293
 30
0.0
  0
LWPOLYLINE
  5
16e
100
AcDbEntity
  8
Layer_1
 62
7
100
AcDbPolyline
 90
2
 70
0
 10
54.647352
 20
60.573293
 30
0.0
 10
54.941899
 20
60.276440
 30
0.0
  0
LWPOLYLINE
  5
16f
100
AcDbEntity
  8
Layer_1
 62
7
100
AcDbPolyline
 90
7
 70
0
 10
55.238983
 20
61.164458
 30
0.0
 10
55.238983
 20
60.276440
 30
0.0
 10
55.683339
 20
60.276440
 30
0.0
 10
55.830608
 20
60.423599
 30
0.0
 10
55.830608
 20
61.017299
 30
0.0
 10
55.683339
 20
61.164458
 30
0.0
 10
55.238983
 20
61.164458
 30
0.0
  0
LWPOLYLINE
  5
170
100
AcDbEntity
  8
Layer_1
 62
7
100
AcDbPolyline
 90
5
 70
0
 10
56.127690
 20
60.276440
 30
0.0
 10
56.422239
 20
60.276440
 30
0.0
 10
56.274964
 20
60.276440
 30
0.0
 10
56.274964
 20
61.164458
 30
0.0
 10
56.127690
 20
61.017299
 30
0.0
  0
LWPOLYLINE
  5
171
100
AcDbEntity
  8
Layer_1
 62
7
100
AcDbPolyline
 90
7
 70
0
 10
54.070961
 20
42.516086
 30
0.0
 10
54.070961
 20
43.404106
 30
0.0
 10
54.515317
 20
43.404106
 30
0.0
 10
54.662589
 20
43.256944
 30
0.0
 10
54.662589
 20
42.960094
 30
0.0
 10
54.515317
 20
42.812938
 30
0.0
 10
54.070961
 20
42.812938
 30
0.0
  0
LWPOLYLINE
  5
172
100
AcDbEntity
  8
Layer_1
 62
7
100
AcDbPolyline
 90
2
 70
0
 10
54.368048
 20
42.812938
 30
0.0
 10
54.662589
 20
42.516086
 30
0.0
  0
LWPOLYLINE
  5
173
100
AcDbEntity
  8
Layer_1
 62
7
100
AcDbPolyline
 90
7
 70
0
 10
54.959673
 20
42.516086
 30
0.0
 10
54.959673
 20
43.107251
 30
0.0
 10
55.256757
 20
43.404106
 30
0.0
 10
55.551301
 20
43.107251
 30
0.0
 10
55.551301
 20
42.516086
 30
0.0
 10
55.551301
 20
42.960094
 30
0.0
 10
54.959673
 20
42.960094
 30
0.0
  0
LWPOLYLINE
  5
174
100
AcDbEntity
  8
Layer_1
 62
7
100
AcDbPolyline
 90
10
 70
0
 10
56.440014
 20
43.404106
 30
0.0
 10
56.142930
 20
43.256944
 30
0.0
 10
55.848383
 20
42.960094
 30
0.0
 10
55.848383
 20
42.663242
 30
0.0
 10
55.995655
 20
42.516086
 30
0.0
 10
56.292739
 20
42.516086
 30
0.0
 10
56.440014
 20
42.663242
 30
0.0
 10
56.440014
 20
42.812938
 30
0.0
 10
56.292739
 20
42.960094
 30
0.0
 10
55.848383
 20
42.960094
 30
0.0
  0
LWPOLYLINE
  5
175
100
AcDbEntity
  8
Layer_1
 62
7
100
AcDbPolyline
 90
7
 70
0
 10
53.410776
 20
32.367310
 30
0.0
 10
53.410776
 20
33.255330
 30
0.0
 10
53.855132
 20
33.255330
 30
0.0
 10
54.002404
 20
33.108171
 30
0.0
 10
54.002404
 20
32.811316
 30
0.0
 10
53.855132
 20
32.664159
 30
0.0
 10
53.410776
 20
32.664159
 30
0.0
  0
LWPOLYLINE
  5
176
100
AcDbEntity
  8
Layer_1
 62
7
100
AcDbPolyline
 90
2
 70
0
 10
53.707860
 20
32.664159
 30
0.0
 10
54.002404
 20
32.367310
 30
0.0
  0
LWPOLYLINE
  5
177
100
AcDbEntity
  8
Layer_1
 62
7
100
AcDbPolyline
 90
7
 70
0
 10
54.299485
 20
33.255330
 30
0.0
 10
54.299485
 20
32.367310
 30
0.0
 10
54.743844
 20
32.367310
 30
0.0
 10
54.891116
 20
32.514466
 30
0.0
 10
54.891116
 20
33.108171
 30
0.0
 10
54.743844
 20
33.255330
 30
0.0
 10
54.299485
 20
33.255330
 30
0.0
  0
LWPOLYLINE
  5
178
100
AcDbEntity
  8
Layer_1
 62
7
100
AcDbPolyline
 90
5
 70
0
 10
55.188200
 20
32.367310
 30
0.0
 10
55.482741
 20
32.367310
 30
0.0
 10
55.335466
 20
32.367310
 30
0.0
 10
55.335466
 20
33.255330
 30
0.0
 10
55.188200
 20
33.108171
 30
0.0
  0
LWPOLYLINE
  5
179
100
AcDbEntity
  8
Layer_1
 62
7
100
AcDbPolyline
 90
4
 70
0
 10
56.371453
 20
32.367310
 30
0.0
 10
56.371453
 20
33.255330
 30
0.0
 10
55.927100
 20
32.811316
 30
0.0
 10
56.521263
 20
32.811316
 30
0.0
  0
LWPOLYLINE
  5
17a
100
AcDbEntity
  8
Layer_1
 62
7
100
AcDbPolyline
 90
7
 70
0
 10
54.070961
 20
39.978891
 30
0.0
 10
54.070961
 20
40.866909
 30
0.0
 10
54.515317
 20
40.866909
 30
0.0
 10
54.662589
 20
40.719752
 30
0.0
 10
54.662589
 20
40.422900
 30
0.0
 10
54.515317
 20
40.275743
 30
0.0
 10
54.070961
 20
40.275743
 30
0.0
  0
LWPOLYLINE
  5
17b
100
AcDbEntity
  8
Layer_1
 62
7
100
AcDbPolyline
 90
2
 70
0
 10
54.368048
 20
40.275743
 30
0.0
 10
54.662589
 20
39.978891
 30
0.0
  0
LWPOLYLINE
  5
17c
100
AcDbEntity
  8
Layer_1
 62
7
100
AcDbPolyline
 90
7
 70
0
 10
54.959673
 20
39.978891
 30
0.0
 10
54.959673
 20
40.570059
 30
0.0
 10
55.256757
 20
40.866909
 30
0.0
 10
55.551301
 20
40.570059
 30
0.0
 10
55.551301
 20
39.978891
 30
0.0
 10
55.551301
 20
40.422900
 30
0.0
 10
54.959673
 20
40.422900
 30
0.0
  0
LWPOLYLINE
  5
17d
100
AcDbEntity
  8
Layer_1
 62
7
100
AcDbPolyline
 90
5
 70
0
 10
55.848383
 20
40.866909
 30
0.0
 10
56.440014
 20
40.866909
 30
0.0
 10
56.440014
 20
40.719752
 30
0.0
 10
55.848383
 20
40.126047
 30
0.0
 10
55.848383
 20
39.978891
 30
0.0
  0
LWPOLYLINE
  5
17e
100
AcDbEntity
  8
Layer_1
 62
7
100
AcDbPolyline
 90
7
 70
0
 10
54.070961
 20
27.292923
 30
0.0
 10
54.070961
 20
28.180941
 30
0.0
 10
54.515317
 20
28.180941
 30
0.0
 10
54.662589
 20
28.033782
 30
0.0
 10
54.662589
 20
27.736929
 30
0.0
 10
54.515317
 20
27.589773
 30
0.0
 10
54.070961
 20
27.589773
 30
0.0
  0
LWPOLYLINE
  5
17f
100
AcDbEntity
  8
Layer_1
 62
7
100
AcDbPolyline
 90
2
 70
0
 10
54.368048
 20
27.589773
 30
0.0
 10
54.662589
 20
27.292923
 30
0.0
  0
LWPOLYLINE
  5
180
100
AcDbEntity
  8
Layer_1
 62
7
100
AcDbPolyline
 90
6
 70
0
 10
55.551301
 20
28.180941
 30
0.0
 10
54.959673
 20
28.180941
 30
0.0
 10
54.959673
 20
27.736929
 30
0.0
 10
55.256757
 20
27.736929
 30
0.0
 10
54.959673
 20
27.736929
 30
0.0
 10
54.959673
 20
27.292923
 30
0.0
  0
LWPOLYLINE
  5
181
100
AcDbEntity
  8
Layer_1
 62
7
100
AcDbPolyline
 90
4
 70
0
 10
56.292739
 20
27.292923
 30
0.0
 10
56.292739
 20
28.180941
 30
0.0
 10
55.848383
 20
27.736929
 30
0.0
 10
56.440014
 20
27.736929
 30
0.0
  0
LWPOLYLINE
  5
182
100
AcDbEntity
  8
Layer_1
 62
7
100
AcDbPolyline
 90
7
 70
0
 10
53.410776
 20
29.830115
 30
0.0
 10
53.410776
 20
30.718133
 30
0.0
 10
53.855132
 20
30.718133
 30
0.0
 10
54.002404
 20
30.570976
 30
0.0
 10
54.002404
 20
30.274127
 30
0.0
 10
53.855132
 20
30.126967
 30
0.0
 10
53.410776
 20
30.126967
 30
0.0
  0
LWPOLYLINE
  5
183
100
AcDbEntity
  8
Layer_1
 62
7
100
AcDbPolyline
 90
2
 70
0
 10
53.707860
 20
30.126967
 30
0.0
 10
54.002404
 20
29.830115
 30
0.0
  0
LWPOLYLINE
  5
184
100
AcDbEntity
  8
Layer_1
 62
7
100
AcDbPolyline
 90
7
 70
0
 10
54.299485
 20
30.718133
 30
0.0
 10
54.299485
 20
29.830115
 30
0.0
 10
54.743844
 20
29.830115
 30
0.0
 10
54.891116
 20
29.977274
 30
0.0
 10
54.891116
 20
30.570976
 30
0.0
 10
54.743844
 20
30.718133
 30
0.0
 10
54.299485
 20
30.718133
 30
0.0
  0
LWPOLYLINE
  5
185
100
AcDbEntity
  8
Layer_1
 62
7
100
AcDbPolyline
 90
5
 70
0
 10
55.188200
 20
29.830115
 30
0.0
 10
55.482741
 20
29.830115
 30
0.0
 10
55.335466
 20
29.830115
 30
0.0
 10
55.335466
 20
30.718133
 30
0.0
 10
55.188200
 20
30.570976
 30
0.0
  0
LWPOLYLINE
  5
186
100
AcDbEntity
  8
Layer_1
 62
7
100
AcDbPolyline
 90
10
 70
0
 10
56.521263
 20
30.718133
 30
0.0
 10
55.927100
 20
30.718133
 30
0.0
 10
55.927100
 20
30.274127
 30
0.0
 10
56.224181
 20
30.421280
 30
0.0
 10
56.371453
 20
30.421280
 30
0.0
 10
56.521263
 20
30.274127
 30
0.0
 10
56.521263
 20
29.977274
 30
0.0
 10
56.371453
 20
29.830115
 30
0.0
 10
56.076909
 20
29.830115
 30
0.0
 10
55.927100
 20
29.977274
 30
0.0
  0
LWPOLYLINE
  5
187
100
AcDbEntity
  8
Layer_1
 62
7
100
AcDbPolyline
 90
10
 70
0
 10
54.662589
 20
10.273424
 30
0.0
 10
54.515317
 20
10.420575
 30
0.0
 10
54.218236
 20
10.420575
 30
0.0
 10
54.070961
 20
10.273424
 30
0.0
 10
54.070961
 20
9.679713
 30
0.0
 10
54.218236
 20
9.532563
 30
0.0
 10
54.515317
 20
9.532563
 30
0.0
 10
54.662589
 20
9.679713
 30
0.0
 10
54.662589
 20
9.976583
 30
0.0
 10
54.368048
 20
9.976583
 30
0.0
  0
LWPOLYLINE
  5
188
100
AcDbEntity
  8
Layer_1
 62
7
100
AcDbPolyline
 90
4
 70
0
 10
54.959673
 20
9.532563
 30
0.0
 10
54.959673
 20
10.420575
 30
0.0
 10
55.551301
 20
9.532563
 30
0.0
 10
55.551301
 20
10.420575
 30
0.0
  0
LWPOLYLINE
  5
189
100
AcDbEntity
  8
Layer_1
 62
7
100
AcDbPolyline
 90
7
 70
0
 10
55.848383
 20
10.420575
 30
0.0
 10
55.848383
 20
9.532563
 30
0.0
 10
56.292739
 20
9.532563
 30
0.0
 10
56.440014
 20
9.679713
 30
0.0
 10
56.440014
 20
10.273424
 30
0.0
 10
56.292739
 20
10.420575
 30
0.0
 10
55.848383
 20
10.420575
 30
0.0
  0
LWPOLYLINE
  5
18a
100
AcDbEntity
  8
Layer_1
 62
7
100
AcDbPolyline
 90
13
 70
0
 10
53.309210
 20
12.836002
 30
0.0
 10
53.456482
 20
12.983153
 30
0.0
 10
53.753563
 20
12.983153
 30
0.0
 10
53.900835
 20
12.836002
 30
0.0
 10
53.900835
 20
12.686283
 30
0.0
 10
53.753563
 20
12.539161
 30
0.0
 10
53.606296
 20
12.539161
 30
0.0
 10
53.753563
 20
12.539161
 30
0.0
 10
53.900835
 20
12.391982
 30
0.0
 10
53.900835
 20
12.242291
 30
0.0
 10
53.753563
 20
12.095112
 30
0.0
 10
53.456482
 20
12.095112
 30
0.0
 10
53.309210
 20
12.242291
 30
0.0
  0
LWPOLYLINE
  5
18b
100
AcDbEntity
  8
Layer_1
 62
7
100
AcDbPolyline
 90
5
 70
0
 10
54.197922
 20
12.095112
 30
0.0
 10
54.197922
 20
12.242291
 30
0.0
 10
54.345191
 20
12.242291
 30
0.0
 10
54.345191
 20
12.095112
 30
0.0
 10
54.197922
 20
12.095112
 30
0.0
  0
LWPOLYLINE
  5
18c
100
AcDbEntity
  8
Layer_1
 62
7
100
AcDbPolyline
 90
13
 70
0
 10
54.936816
 20
12.836002
 30
0.0
 10
55.086631
 20
12.983153
 30
0.0
 10
55.381175
 20
12.983153
 30
0.0
 10
55.530984
 20
12.836002
 30
0.0
 10
55.530984
 20
12.686283
 30
0.0
 10
55.381175
 20
12.539161
 30
0.0
 10
55.233903
 20
12.539161
 30
0.0
 10
55.381175
 20
12.539161
 30
0.0
 10
55.530984
 20
12.391982
 30
0.0
 10
55.530984
 20
12.242291
 30
0.0
 10
55.381175
 20
12.095112
 30
0.0
 10
55.086631
 20
12.095112
 30
0.0
 10
54.936816
 20
12.242291
 30
0.0
  0
LWPOLYLINE
  5
18d
100
AcDbEntity
  8
Layer_1
 62
7
100
AcDbPolyline
 90
5
 70
0
 10
55.825531
 20
12.983153
 30
0.0
 10
55.825531
 20
12.391982
 30
0.0
 10
56.122615
 20
12.095112
 30
0.0
 10
56.419699
 20
12.391982
 30
0.0
 10
56.419699
 20
12.983153
 30
0.0
  0
LWPOLYLINE
  5
18e
100
AcDbEntity
  8
Layer_1
 62
7
100
AcDbPolyline
 90
5
 70
0
 10
5.953610
 20
65.350829
 30
0.0
 10
6.248155
 20
65.350829
 30
0.0
 10
6.100882
 20
65.350829
 30
0.0
 10
6.100882
 20
66.238845
 30
0.0
 10
5.953610
 20
66.091688
 30
0.0
  0
LWPOLYLINE
  5
18f
100
AcDbEntity
  8
Layer_1
 62
7
100
AcDbPolyline
 90
12
 70
0
 10
5.064899
 20
66.238845
 30
0.0
 10
5.064899
 20
65.350829
 30
0.0
 10
5.509255
 20
65.350829
 30
0.0
 10
5.656527
 20
65.497986
 30
0.0
 10
5.656527
 20
65.647682
 30
0.0
 10
5.509255
 20
65.794838
 30
0.0
 10
5.064899
 20
65.794838
 30
0.0
 10
5.509255
 20
65.794838
 30
0.0
 10
5.656527
 20
65.941995
 30
0.0
 10
5.656527
 20
66.091688
 30
0.0
 10
5.509255
 20
66.238845
 30
0.0
 10
5.064899
 20
66.238845
 30
0.0
  0
LWPOLYLINE
  5
190
100
AcDbEntity
  8
Layer_1
 62
7
100
AcDbPolyline
 90
2
 70
0
 10
4.473272
 20
65.647682
 30
0.0
 10
4.767817
 20
65.350829
 30
0.0
  0
LWPOLYLINE
  5
191
100
AcDbEntity
  8
Layer_1
 62
7
100
AcDbPolyline
 90
7
 70
0
 10
4.176188
 20
65.350829
 30
0.0
 10
4.176188
 20
66.238845
 30
0.0
 10
4.620544
 20
66.238845
 30
0.0
 10
4.767817
 20
66.091688
 30
0.0
 10
4.767817
 20
65.794838
 30
0.0
 10
4.620544
 20
65.647682
 30
0.0
 10
4.176188
 20
65.647682
 30
0.0
  0
LWPOLYLINE
  5
192
100
AcDbEntity
  8
Layer_1
 62
7
100
AcDbPolyline
 90
7
 70
0
 10
4.176188
 20
22.218536
 30
0.0
 10
4.176188
 20
23.106554
 30
0.0
 10
4.620544
 20
23.106554
 30
0.0
 10
4.767817
 20
22.959392
 30
0.0
 10
4.767817
 20
22.662542
 30
0.0
 10
4.620544
 20
22.515386
 30
0.0
 10
4.176188
 20
22.515386
 30
0.0
  0
LWPOLYLINE
  5
193
100
AcDbEntity
  8
Layer_1
 62
7
100
AcDbPolyline
 90
2
 70
0
 10
4.473272
 20
22.515386
 30
0.0
 10
4.767817
 20
22.218536
 30
0.0
  0
LWPOLYLINE
  5
194
100
AcDbEntity
  8
Layer_1
 62
7
100
AcDbPolyline
 90
10
 70
0
 10
5.656527
 20
22.959392
 30
0.0
 10
5.509255
 20
23.106554
 30
0.0
 10
5.212171
 20
23.106554
 30
0.0
 10
5.064899
 20
22.959392
 30
0.0
 10
5.064899
 20
22.365693
 30
0.0
 10
5.212171
 20
22.218536
 30
0.0
 10
5.509255
 20
22.218536
 30
0.0
 10
5.656527
 20
22.365693
 30
0.0
 10
5.656527
 20
22.662542
 30
0.0
 10
5.361983
 20
22.662542
 30
0.0
  0
LWPOLYLINE
  5
195
100
AcDbEntity
  8
Layer_1
 62
7
100
AcDbPolyline
 90
5
 70
0
 10
5.953610
 20
22.218536
 30
0.0
 10
6.248155
 20
22.218536
 30
0.0
 10
6.100882
 20
22.218536
 30
0.0
 10
6.100882
 20
23.106554
 30
0.0
 10
5.953610
 20
22.959392
 30
0.0
  0
LWPOLYLINE
  5
196
100
AcDbEntity
  8
Layer_1
 62
7
100
AcDbPolyline
 90
4
 70
0
 10
7.136865
 20
22.218536
 30
0.0
 10
7.136865
 20
23.106554
 30
0.0
 10
6.692511
 20
22.662542
 30
0.0
 10
7.286677
 20
22.662542
 30
0.0
  0
LWPOLYLINE
  5
197
100
AcDbEntity
  8
Layer_1
 62
7
100
AcDbPolyline
 90
7
 70
0
 10
55.848383
 20
71.313231
 30
0.0
 10
55.848383
 20
70.425216
 30
0.0
 10
56.292739
 20
70.425216
 30
0.0
 10
56.440014
 20
70.572372
 30
0.0
 10
56.440014
 20
71.166078
 30
0.0
 10
56.292739
 20
71.313231
 30
0.0
 10
55.848383
 20
71.313231
 30
0.0
  0
LWPOLYLINE
  5
198
100
AcDbEntity
  8
Layer_1
 62
7
100
AcDbPolyline
 90
4
 70
0
 10
54.959673
 20
70.425216
 30
0.0
 10
54.959673
 20
71.313231
 30
0.0
 10
55.551301
 20
70.425216
 30
0.0
 10
55.551301
 20
71.313231
 30
0.0
  0
LWPOLYLINE
  5
199
100
AcDbEntity
  8
Layer_1
 62
7
100
AcDbPolyline
 90
10
 70
0
 10
54.662589
 20
71.166078
 30
0.0
 10
54.515317
 20
71.313231
 30
0.0
 10
54.218236
 20
71.313231
 30
0.0
 10
54.070961
 20
71.166078
 30
0.0
 10
54.070961
 20
70.572372
 30
0.0
 10
54.218236
 20
70.425216
 30
0.0
 10
54.515317
 20
70.425216
 30
0.0
 10
54.662589
 20
70.572372
 30
0.0
 10
54.662589
 20
70.869225
 30
0.0
 10
54.368048
 20
70.869225
 30
0.0
  0
LWPOLYLINE
  5
19a
100
AcDbEntity
  8
Layer_1
 62
7
100
AcDbPolyline
 90
13
 70
0
 10
24.129019
 20
3.570167
 30
0.0
 10
23.981747
 20
3.717289
 30
0.0
 10
23.981747
 20
4.014159
 30
0.0
 10
24.129019
 20
4.161338
 30
0.0
 10
24.278831
 20
4.161338
 30
0.0
 10
24.426103
 20
4.014159
 30
0.0
 10
24.426103
 20
3.867008
 30
0.0
 10
24.426103
 20
4.014159
 30
0.0
 10
24.573375
 20
4.161338
 30
0.0
 10
24.723187
 20
4.161338
 30
0.0
 10
24.870458
 20
4.014159
 30
0.0
 10
24.870458
 20
3.717289
 30
0.0
 10
24.723187
 20
3.570167
 30
0.0
  0
LWPOLYLINE
  5
19b
100
AcDbEntity
  8
Layer_1
 62
7
100
AcDbPolyline
 90
5
 70
0
 10
24.870458
 20
4.458207
 30
0.0
 10
24.723187
 20
4.458207
 30
0.0
 10
24.723187
 20
4.605330
 30
0.0
 10
24.870458
 20
4.605330
 30
0.0
 10
24.870458
 20
4.458207
 30
0.0
  0
LWPOLYLINE
  5
19c
100
AcDbEntity
  8
Layer_1
 62
7
100
AcDbPolyline
 90
13
 70
0
 10
24.129019
 20
5.196501
 30
0.0
 10
23.981747
 20
5.346191
 30
0.0
 10
23.981747
 20
5.640493
 30
0.0
 10
24.129019
 20
5.790211
 30
0.0
 10
24.278831
 20
5.790211
 30
0.0
 10
24.426103
 20
5.640493
 30
0.0
 10
24.426103
 20
5.493370
 30
0.0
 10
24.426103
 20
5.640493
 30
0.0
 10
24.573375
 20
5.790211
 30
0.0
 10
24.723187
 20
5.790211
 30
0.0
 10
24.870458
 20
5.640493
 30
0.0
 10
24.870458
 20
5.346191
 30
0.0
 10
24.723187
 20
5.196501
 30
0.0
  0
LWPOLYLINE
  5
19d
100
AcDbEntity
  8
Layer_1
 62
7
100
AcDbPolyline
 90
5
 70
0
 10
23.981747
 20
6.084541
 30
0.0
 10
24.573375
 20
6.084541
 30
0.0
 10
24.870458
 20
6.381382
 30
0.0
 10
24.573375
 20
6.678224
 30
0.0
 10
23.981747
 20
6.678224
 30
0.0
  0
LWPOLYLINE
  5
19e
100
AcDbEntity
  8
Layer_1
 62
7
100
AcDbPolyline
 90
4
 70
0
 10
17.887729
 20
3.570167
 30
0.0
 10
16.999018
 20
3.570167
 30
0.0
 10
17.887729
 20
4.161338
 30
0.0
 10
16.999018
 20
4.161338
 30
0.0
  0
LWPOLYLINE
  5
19f
100
AcDbEntity
  8
Layer_1
 62
7
100
AcDbPolyline
 90
8
 70
0
 10
17.146291
 20
5.049378
 30
0.0
 10
16.999018
 20
4.902171
 30
0.0
 10
16.999018
 20
4.605330
 30
0.0
 10
17.146291
 20
4.458207
 30
0.0
 10
17.740457
 20
4.458207
 30
0.0
 10
17.887729
 20
4.605330
 30
0.0
 10
17.887729
 20
4.902171
 30
0.0
 10
17.740457
 20
5.049378
 30
0.0
  0
LWPOLYLINE
  5
1a0
100
AcDbEntity
  8
Layer_1
 62
7
100
AcDbPolyline
 90
10
 70
0
 10
34.285716
 20
4.161338
 30
0.0
 10
34.138444
 20
4.014159
 30
0.0
 10
34.138444
 20
3.717289
 30
0.0
 10
34.285716
 20
3.570167
 30
0.0
 10
34.879881
 20
3.570167
 30
0.0
 10
35.027153
 20
3.717289
 30
0.0
 10
35.027153
 20
4.014159
 30
0.0
 10
34.879881
 20
4.161338
 30
0.0
 10
34.582800
 20
4.161338
 30
0.0
 10
34.582800
 20
3.867008
 30
0.0
  0
LWPOLYLINE
  5
1a1
100
AcDbEntity
  8
Layer_1
 62
7
100
AcDbPolyline
 90
4
 70
0
 10
35.027153
 20
4.458207
 30
0.0
 10
34.138444
 20
4.458207
 30
0.0
 10
35.027153
 20
5.049378
 30
0.0
 10
34.138444
 20
5.049378
 30
0.0
  0
LWPOLYLINE
  5
1a2
100
AcDbEntity
  8
Layer_1
 62
7
100
AcDbPolyline
 90
7
 70
0
 10
34.138444
 20
5.346191
 30
0.0
 10
35.027153
 20
5.346191
 30
0.0
 10
35.027153
 20
5.790211
 30
0.0
 10
34.879881
 20
5.937334
 30
0.0
 10
34.285716
 20
5.937334
 30
0.0
 10
34.138444
 20
5.790211
 30
0.0
 10
34.138444
 20
5.346191
 30
0.0
  0
LWPOLYLINE
  5
1a3
100
AcDbEntity
  8
Layer_1
 62
7
100
AcDbPolyline
 90
7
 70
0
 10
32.361020
 20
3.570167
 30
0.0
 10
31.472310
 20
3.570167
 30
0.0
 10
31.472310
 20
4.014159
 30
0.0
 10
31.619582
 20
4.161338
 30
0.0
 10
31.916669
 20
4.161338
 30
0.0
 10
32.063938
 20
4.014159
 30
0.0
 10
32.063938
 20
3.570167
 30
0.0
  0
LWPOLYLINE
  5
1a4
100
AcDbEntity
  8
Layer_1
 62
7
100
AcDbPolyline
 90
2
 70
0
 10
32.063938
 20
3.867008
 30
0.0
 10
32.361020
 20
4.161338
 30
0.0
  0
LWPOLYLINE
  5
1a5
100
AcDbEntity
  8
Layer_1
 62
7
100
AcDbPolyline
 90
12
 70
0
 10
31.619582
 20
5.049378
 30
0.0
 10
31.472310
 20
4.902171
 30
0.0
 10
31.472310
 20
4.605330
 30
0.0
 10
31.619582
 20
4.458207
 30
0.0
 10
31.769394
 20
4.458207
 30
0.0
 10
31.916669
 20
4.605330
 30
0.0
 10
31.916669
 20
4.902171
 30
0.0
 10
32.063938
 20
5.049378
 30
0.0
 10
32.213750
 20
5.049378
 30
0.0
 10
32.361020
 20
4.902171
 30
0.0
 10
32.361020
 20
4.605330
 30
0.0
 10
32.213750
 20
4.458207
 30
0.0
  0
LWPOLYLINE
  5
1a6
100
AcDbEntity
  8
Layer_1
 62
7
100
AcDbPolyline
 90
4
 70
0
 10
31.472310
 20
5.346191
 30
0.0
 10
31.472310
 20
5.937334
 30
0.0
 10
31.472310
 20
5.640493
 30
0.0
 10
32.361020
 20
5.640493
 30
0.0
  0
LWPOLYLINE
  5
1a7
100
AcDbEntity
  8
Layer_1
 62
7
100
AcDbPolyline
 90
7
 70
0
 10
27.409632
 20
3.570167
 30
0.0
 10
26.520921
 20
3.570167
 30
0.0
 10
26.520921
 20
4.014159
 30
0.0
 10
26.668193
 20
4.161338
 30
0.0
 10
26.965277
 20
4.161338
 30
0.0
 10
27.112549
 20
4.014159
 30
0.0
 10
27.112549
 20
3.570167
 30
0.0
  0
LWPOLYLINE
  5
1a8
100
AcDbEntity
  8
Layer_1
 62
7
100
AcDbPolyline
 90
10
 70
0
 10
26.668193
 20
5.049378
 30
0.0
 10
26.520921
 20
4.902171
 30
0.0
 10
26.520921
 20
4.605330
 30
0.0
 10
26.668193
 20
4.458207
 30
0.0
 10
27.262361
 20
4.458207
 30
0.0
 10
27.409632
 20
4.605330
 30
0.0
 10
27.409632
 20
4.902171
 30
0.0
 10
27.262361
 20
5.049378
 30
0.0
 10
26.965277
 20
5.049378
 30
0.0
 10
26.965277
 20
4.755049
 30
0.0
  0
LWPOLYLINE
  5
1a9
100
AcDbEntity
  8
Layer_1
 62
7
100
AcDbPolyline
 90
8
 70
0
 10
26.668193
 20
5.937334
 30
0.0
 10
26.520921
 20
5.790211
 30
0.0
 10
26.520921
 20
5.493370
 30
0.0
 10
26.668193
 20
5.346191
 30
0.0
 10
27.262361
 20
5.346191
 30
0.0
 10
27.409632
 20
5.493370
 30
0.0
 10
27.409632
 20
5.790211
 30
0.0
 10
27.262361
 20
5.937334
 30
0.0
  0
LWPOLYLINE
  5
1aa
100
AcDbEntity
  8
Layer_1
 62
7
100
AcDbPolyline
 90
7
 70
0
 10
29.948807
 20
3.570167
 30
0.0
 10
29.060095
 20
3.570167
 30
0.0
 10
29.060095
 20
4.014159
 30
0.0
 10
29.207367
 20
4.161338
 30
0.0
 10
29.504451
 20
4.161338
 30
0.0
 10
29.651720
 20
4.014159
 30
0.0
 10
29.651720
 20
3.570167
 30
0.0
  0
LWPOLYLINE
  5
1ab
100
AcDbEntity
  8
Layer_1
 62
7
100
AcDbPolyline
 90
10
 70
0
 10
29.207367
 20
5.049378
 30
0.0
 10
29.060095
 20
4.902171
 30
0.0
 10
29.060095
 20
4.605330
 30
0.0
 10
29.207367
 20
4.458207
 30
0.0
 10
29.801532
 20
4.458207
 30
0.0
 10
29.948807
 20
4.605330
 30
0.0
 10
29.948807
 20
4.902171
 30
0.0
 10
29.801532
 20
5.049378
 30
0.0
 10
29.504451
 20
5.049378
 30
0.0
 10
29.504451
 20
4.755049
 30
0.0
  0
LWPOLYLINE
  5
1ac
100
AcDbEntity
  8
Layer_1
 62
7
100
AcDbPolyline
 90
7
 70
0
 10
29.060095
 20
5.346191
 30
0.0
 10
29.948807
 20
5.346191
 30
0.0
 10
29.948807
 20
5.790211
 30
0.0
 10
29.801532
 20
5.937334
 30
0.0
 10
29.207367
 20
5.937334
 30
0.0
 10
29.060095
 20
5.790211
 30
0.0
 10
29.060095
 20
5.346191
 30
0.0
  0
LWPOLYLINE
  5
1ad
100
AcDbEntity
  8
Layer_1
 62
7
100
AcDbPolyline
 90
7
 70
0
 10
15.348555
 20
3.570167
 30
0.0
 10
14.459844
 20
3.570167
 30
0.0
 10
14.459844
 20
4.014159
 30
0.0
 10
14.607116
 20
4.161338
 30
0.0
 10
14.904200
 20
4.161338
 30
0.0
 10
15.051472
 20
4.014159
 30
0.0
 10
15.051472
 20
3.570167
 30
0.0
  0
LWPOLYLINE
  5
1ae
100
AcDbEntity
  8
Layer_1
 62
7
100
AcDbPolyline
 90
10
 70
0
 10
14.607116
 20
5.049378
 30
0.0
 10
14.459844
 20
4.902171
 30
0.0
 10
14.459844
 20
4.605330
 30
0.0
 10
14.607116
 20
4.458207
 30
0.0
 10
15.201283
 20
4.458207
 30
0.0
 10
15.348555
 20
4.605330
 30
0.0
 10
15.348555
 20
4.902171
 30
0.0
 10
15.201283
 20
5.049378
 30
0.0
 10
14.904200
 20
5.049378
 30
0.0
 10
14.904200
 20
4.755049
 30
0.0
  0
LWPOLYLINE
  5
1af
100
AcDbEntity
  8
Layer_1
 62
7
100
AcDbPolyline
 90
8
 70
0
 10
14.607116
 20
5.937334
 30
0.0
 10
14.459844
 20
5.790211
 30
0.0
 10
14.459844
 20
5.493370
 30
0.0
 10
14.607116
 20
5.346191
 30
0.0
 10
15.201283
 20
5.346191
 30
0.0
 10
15.348555
 20
5.493370
 30
0.0
 10
15.348555
 20
5.790211
 30
0.0
 10
15.201283
 20
5.937334
 30
0.0
  0
LWPOLYLINE
  5
1b0
100
AcDbEntity
  8
Layer_1
 62
7
100
AcDbPolyline
 90
7
 70
0
 10
12.809381
 20
3.570167
 30
0.0
 10
11.920670
 20
3.570167
 30
0.0
 10
11.920670
 20
4.014159
 30
0.0
 10
12.067942
 20
4.161338
 30
0.0
 10
12.365026
 20
4.161338
 30
0.0
 10
12.512298
 20
4.014159
 30
0.0
 10
12.512298
 20
3.570167
 30
0.0
  0
LWPOLYLINE
  5
1b1
100
AcDbEntity
  8
Layer_1
 62
7
100
AcDbPolyline
 90
10
 70
0
 10
12.067942
 20
5.049378
 30
0.0
 10
11.920670
 20
4.902171
 30
0.0
 10
11.920670
 20
4.605330
 30
0.0
 10
12.067942
 20
4.458207
 30
0.0
 10
12.662109
 20
4.458207
 30
0.0
 10
12.809381
 20
4.605330
 30
0.0
 10
12.809381
 20
4.902171
 30
0.0
 10
12.662109
 20
5.049378
 30
0.0
 10
12.365026
 20
5.049378
 30
0.0
 10
12.365026
 20
4.755049
 30
0.0
  0
LWPOLYLINE
  5
1b2
100
AcDbEntity
  8
Layer_1
 62
7
100
AcDbPolyline
 90
7
 70
0
 10
11.920670
 20
5.346191
 30
0.0
 10
12.809381
 20
5.346191
 30
0.0
 10
12.809381
 20
5.790211
 30
0.0
 10
12.662109
 20
5.937334
 30
0.0
 10
12.067942
 20
5.937334
 30
0.0
 10
11.920670
 20
5.790211
 30
0.0
 10
11.920670
 20
5.346191
 30
0.0
  0
LWPOLYLINE
  5
1b3
100
AcDbEntity
  8
Layer_1
 62
7
100
AcDbPolyline
 90
10
 70
0
 10
9.528768
 20
4.161338
 30
0.0
 10
9.381496
 20
4.014159
 30
0.0
 10
9.381496
 20
3.717289
 30
0.0
 10
9.528768
 20
3.570167
 30
0.0
 10
10.122935
 20
3.570167
 30
0.0
 10
10.270206
 20
3.717289
 30
0.0
 10
10.270206
 20
4.014159
 30
0.0
 10
10.122935
 20
4.161338
 30
0.0
 10
9.825851
 20
4.161338
 30
0.0
 10
9.825851
 20
3.867008
 30
0.0
  0
LWPOLYLINE
  5
1b4
100
AcDbEntity
  8
Layer_1
 62
7
100
AcDbPolyline
 90
4
 70
0
 10
10.270206
 20
4.458207
 30
0.0
 10
9.381496
 20
4.458207
 30
0.0
 10
10.270206
 20
5.049378
 30
0.0
 10
9.381496
 20
5.049378
 30
0.0
  0
LWPOLYLINE
  5
1b5
100
AcDbEntity
  8
Layer_1
 62
7
100
AcDbPolyline
 90
7
 70
0
 10
9.381496
 20
5.346191
 30
0.0
 10
10.270206
 20
5.346191
 30
0.0
 10
10.270206
 20
5.790211
 30
0.0
 10
10.122935
 20
5.937334
 30
0.0
 10
9.528768
 20
5.937334
 30
0.0
 10
9.381496
 20
5.790211
 30
0.0
 10
9.381496
 20
5.346191
 30
0.0
  0
LWPOLYLINE
  5
1b6
100
AcDbEntity
  8
Layer_1
 62
7
100
AcDbPolyline
 90
7
 70
0
 10
4.176188
 20
19.681339
 30
0.0
 10
4.176188
 20
20.569359
 30
0.0
 10
4.620544
 20
20.569359
 30
0.0
 10
4.767817
 20
20.422203
 30
0.0
 10
4.767817
 20
20.125351
 30
0.0
 10
4.620544
 20
19.978191
 30
0.0
 10
4.176188
 20
19.978191
 30
0.0
  0
LWPOLYLINE
  5
1b7
100
AcDbEntity
  8
Layer_1
 62
7
100
AcDbPolyline
 90
2
 70
0
 10
4.473272
 20
19.978191
 30
0.0
 10
4.767817
 20
19.681339
 30
0.0
  0
LWPOLYLINE
  5
1b8
100
AcDbEntity
  8
Layer_1
 62
7
100
AcDbPolyline
 90
10
 70
0
 10
5.656527
 20
20.422203
 30
0.0
 10
5.509255
 20
20.569359
 30
0.0
 10
5.212171
 20
20.569359
 30
0.0
 10
5.064899
 20
20.422203
 30
0.0
 10
5.064899
 20
19.828495
 30
0.0
 10
5.212171
 20
19.681339
 30
0.0
 10
5.509255
 20
19.681339
 30
0.0
 10
5.656527
 20
19.828495
 30
0.0
 10
5.656527
 20
20.125351
 30
0.0
 10
5.361983
 20
20.125351
 30
0.0
  0
LWPOLYLINE
  5
1b9
100
AcDbEntity
  8
Layer_1
 62
7
100
AcDbPolyline
 90
10
 70
0
 10
6.545238
 20
20.569359
 30
0.0
 10
6.248155
 20
20.422203
 30
0.0
 10
5.953610
 20
20.125351
 30
0.0
 10
5.953610
 20
19.828495
 30
0.0
 10
6.100882
 20
19.681339
 30
0.0
 10
6.397966
 20
19.681339
 30
0.0
 10
6.545238
 20
19.828495
 30
0.0
 10
6.545238
 20
19.978191
 30
0.0
 10
6.397966
 20
20.125351
 30
0.0
 10
5.953610
 20
20.125351
 30
0.0
  0
LWPOLYLINE
  5
1ba
100
AcDbEntity
  8
Layer_1
 62
7
100
AcDbPolyline
 90
12
 70
0
 10
7.814825
 20
20.422203
 30
0.0
 10
7.667553
 20
20.569359
 30
0.0
 10
7.370470
 20
20.569359
 30
0.0
 10
7.223197
 20
20.422203
 30
0.0
 10
7.223197
 20
20.272507
 30
0.0
 10
7.370470
 20
20.125351
 30
0.0
 10
7.667553
 20
20.125351
 30
0.0
 10
7.814825
 20
19.978191
 30
0.0
 10
7.814825
 20
19.828495
 30
0.0
 10
7.667553
 20
19.681339
 30
0.0
 10
7.370470
 20
19.681339
 30
0.0
 10
7.223197
 20
19.828495
 30
0.0
  0
LWPOLYLINE
  5
1bb
100
AcDbEntity
  8
Layer_1
 62
7
100
AcDbPolyline
 90
7
 70
0
 10
4.176188
 20
17.144147
 30
0.0
 10
4.176188
 20
18.032165
 30
0.0
 10
4.620544
 20
18.032165
 30
0.0
 10
4.767817
 20
17.885006
 30
0.0
 10
4.767817
 20
17.588156
 30
0.0
 10
4.620544
 20
17.441000
 30
0.0
 10
4.176188
 20
17.441000
 30
0.0
  0
LWPOLYLINE
  5
1bc
100
AcDbEntity
  8
Layer_1
 62
7
100
AcDbPolyline
 90
2
 70
0
 10
4.473272
 20
17.441000
 30
0.0
 10
4.767817
 20
17.144147
 30
0.0
  0
LWPOLYLINE
  5
1bd
100
AcDbEntity
  8
Layer_1
 62
7
100
AcDbPolyline
 90
10
 70
0
 10
5.656527
 20
17.885006
 30
0.0
 10
5.509255
 20
18.032165
 30
0.0
 10
5.212171
 20
18.032165
 30
0.0
 10
5.064899
 20
17.885006
 30
0.0
 10
5.064899
 20
17.291306
 30
0.0
 10
5.212171
 20
17.144147
 30
0.0
 10
5.509255
 20
17.144147
 30
0.0
 10
5.656527
 20
17.291306
 30
0.0
 10
5.656527
 20
17.588156
 30
0.0
 10
5.361983
 20
17.588156
 30
0.0
  0
LWPOLYLINE
  5
1be
100
AcDbEntity
  8
Layer_1
 62
7
100
AcDbPolyline
 90
5
 70
0
 10
5.953610
 20
18.032165
 30
0.0
 10
6.545238
 20
18.032165
 30
0.0
 10
6.545238
 20
17.885006
 30
0.0
 10
5.953610
 20
17.291306
 30
0.0
 10
5.953610
 20
17.144147
 30
0.0
  0
LWPOLYLINE
  5
1bf
100
AcDbEntity
  8
Layer_1
 62
7
100
AcDbPolyline
 90
12
 70
0
 10
7.814825
 20
17.885006
 30
0.0
 10
7.667553
 20
18.032165
 30
0.0
 10
7.370470
 20
18.032165
 30
0.0
 10
7.223197
 20
17.885006
 30
0.0
 10
7.223197
 20
17.735309
 30
0.0
 10
7.370470
 20
17.588156
 30
0.0
 10
7.667553
 20
17.588156
 30
0.0
 10
7.814825
 20
17.441000
 30
0.0
 10
7.814825
 20
17.291306
 30
0.0
 10
7.667553
 20
17.144147
 30
0.0
 10
7.370470
 20
17.144147
 30
0.0
 10
7.223197
 20
17.291306
 30
0.0
  0
LWPOLYLINE
  5
1c0
100
AcDbEntity
  8
Layer_1
 62
7
100
AcDbPolyline
 90
7
 70
0
 10
4.176188
 20
14.606947
 30
0.0
 10
4.176188
 20
15.494973
 30
0.0
 10
4.620544
 20
15.494973
 30
0.0
 10
4.767817
 20
15.347817
 30
0.0
 10
4.767817
 20
15.050967
 30
0.0
 10
4.620544
 20
14.903816
 30
0.0
 10
4.176188
 20
14.903816
 30
0.0
  0
LWPOLYLINE
  5
1c1
100
AcDbEntity
  8
Layer_1
 62
7
100
AcDbPolyline
 90
2
 70
0
 10
4.473272
 20
14.903816
 30
0.0
 10
4.767817
 20
14.606947
 30
0.0
  0
LWPOLYLINE
  5
1c2
100
AcDbEntity
  8
Layer_1
 62
7
100
AcDbPolyline
 90
10
 70
0
 10
5.656527
 20
15.347817
 30
0.0
 10
5.509255
 20
15.494973
 30
0.0
 10
5.212171
 20
15.494973
 30
0.0
 10
5.064899
 20
15.347817
 30
0.0
 10
5.064899
 20
14.754097
 30
0.0
 10
5.212171
 20
14.606947
 30
0.0
 10
5.509255
 20
14.606947
 30
0.0
 10
5.656527
 20
14.754097
 30
0.0
 10
5.656527
 20
15.050967
 30
0.0
 10
5.361983
 20
15.050967
 30
0.0
  0
LWPOLYLINE
  5
1c3
100
AcDbEntity
  8
Layer_1
 62
7
100
AcDbPolyline
 90
15
 70
0
 10
5.953610
 20
15.347817
 30
0.0
 10
6.100882
 20
15.494973
 30
0.0
 10
6.397966
 20
15.494973
 30
0.0
 10
6.545238
 20
15.347817
 30
0.0
 10
6.545238
 20
15.198117
 30
0.0
 10
6.397966
 20
15.050967
 30
0.0
 10
6.545238
 20
14.903816
 30
0.0
 10
6.545238
 20
14.754097
 30
0.0
 10
6.397966
 20
14.606947
 30
0.0
 10
6.100882
 20
14.606947
 30
0.0
 10
5.953610
 20
14.754097
 30
0.0
 10
5.953610
 20
14.903816
 30
0.0
 10
6.100882
 20
15.050967
 30
0.0
 10
5.953610
 20
15.198117
 30
0.0
 10
5.953610
 20
15.347817
 30
0.0
  0
LWPOLYLINE
  5
1c4
100
AcDbEntity
  8
Layer_1
 62
7
100
AcDbPolyline
 90
2
 70
0
 10
6.100882
 20
15.050967
 30
0.0
 10
6.397966
 20
15.050967
 30
0.0
  0
LWPOLYLINE
  5
1c5
100
AcDbEntity
  8
Layer_1
 62
7
100
AcDbPolyline
 90
12
 70
0
 10
7.814825
 20
15.347817
 30
0.0
 10
7.667553
 20
15.494973
 30
0.0
 10
7.370470
 20
15.494973
 30
0.0
 10
7.223197
 20
15.347817
 30
0.0
 10
7.223197
 20
15.198117
 30
0.0
 10
7.370470
 20
15.050967
 30
0.0
 10
7.667553
 20
15.050967
 30
0.0
 10
7.814825
 20
14.903816
 30
0.0
 10
7.814825
 20
14.754097
 30
0.0
 10
7.667553
 20
14.606947
 30
0.0
 10
7.370470
 20
14.606947
 30
0.0
 10
7.223197
 20
14.754097
 30
0.0
  0
LWPOLYLINE
  5
1c6
100
AcDbEntity
  8
Layer_1
 62
7
100
AcDbPolyline
 90
7
 70
0
 10
5.826652
 20
3.570167
 30
0.0
 10
4.937940
 20
3.570167
 30
0.0
 10
4.937940
 20
4.014159
 30
0.0
 10
5.085213
 20
4.161338
 30
0.0
 10
5.382296
 20
4.161338
 30
0.0
 10
5.529568
 20
4.014159
 30
0.0
 10
5.529568
 20
3.570167
 30
0.0
  0
LWPOLYLINE
  5
1c7
100
AcDbEntity
  8
Layer_1
 62
7
100
AcDbPolyline
 90
2
 70
0
 10
5.529568
 20
3.867008
 30
0.0
 10
5.826652
 20
4.161338
 30
0.0
  0
LWPOLYLINE
  5
1c8
100
AcDbEntity
  8
Layer_1
 62
7
100
AcDbPolyline
 90
12
 70
0
 10
5.085213
 20
5.049378
 30
0.0
 10
4.937940
 20
4.902171
 30
0.0
 10
4.937940
 20
4.605330
 30
0.0
 10
5.085213
 20
4.458207
 30
0.0
 10
5.235024
 20
4.458207
 30
0.0
 10
5.382296
 20
4.605330
 30
0.0
 10
5.382296
 20
4.902171
 30
0.0
 10
5.529568
 20
5.049378
 30
0.0
 10
5.679379
 20
5.049378
 30
0.0
 10
5.826652
 20
4.902171
 30
0.0
 10
5.826652
 20
4.605330
 30
0.0
 10
5.679379
 20
4.458207
 30
0.0
  0
LWPOLYLINE
  5
1c9
100
AcDbEntity
  8
Layer_1
 62
7
100
AcDbPolyline
 90
4
 70
0
 10
4.937940
 20
5.346191
 30
0.0
 10
4.937940
 20
5.937334
 30
0.0
 10
4.937940
 20
5.640493
 30
0.0
 10
5.826652
 20
5.640493
 30
0.0
  0
LWPOLYLINE
  5
1ca
100
AcDbEntity
  8
Layer_1
 62
7
100
AcDbPolyline
 90
4
 70
0
 10
51.430222
 20
20.594731
 30
0.0
 10
52.021847
 20
20.594731
 30
0.0
 10
51.727303
 20
20.594731
 30
0.0
 10
51.727303
 20
19.706713
 30
0.0
  0
LWPOLYLINE
  5
1cb
100
AcDbEntity
  8
Layer_1
 62
7
100
AcDbPolyline
 90
2
 70
0
 10
52.318931
 20
20.594731
 30
0.0
 10
52.910559
 20
19.706713
 30
0.0
  0
LWPOLYLINE
  5
1cc
100
AcDbEntity
  8
Layer_1
 62
7
100
AcDbPolyline
 90
2
 70
0
 10
52.910559
 20
20.594731
 30
0.0
 10
52.318931
 20
19.706713
 30
0.0
  0
LWPOLYLINE
  5
1cd
100
AcDbEntity
  8
Layer_1
 62
7
100
AcDbPolyline
 90
2
 70
0
 10
53.207643
 20
20.150719
 30
0.0
 10
53.799272
 20
20.150719
 30
0.0
  0
LWPOLYLINE
  5
1ce
100
AcDbEntity
  8
Layer_1
 62
7
100
AcDbPolyline
 90
7
 70
0
 10
54.096353
 20
19.706713
 30
0.0
 10
54.096353
 20
20.594731
 30
0.0
 10
54.540709
 20
20.594731
 30
0.0
 10
54.687984
 20
20.447572
 30
0.0
 10
54.687984
 20
20.150719
 30
0.0
 10
54.540709
 20
20.003563
 30
0.0
 10
54.096353
 20
20.003563
 30
0.0
  0
LWPOLYLINE
  5
1cf
100
AcDbEntity
  8
Layer_1
 62
7
100
AcDbPolyline
 90
2
 70
0
 10
54.390900
 20
20.003563
 30
0.0
 10
54.687984
 20
19.706713
 30
0.0
  0
LWPOLYLINE
  5
1d0
100
AcDbEntity
  8
Layer_1
 62
7
100
AcDbPolyline
 90
6
 70
0
 10
55.576693
 20
20.594731
 30
0.0
 10
54.985065
 20
20.594731
 30
0.0
 10
54.985065
 20
20.150719
 30
0.0
 10
55.279606
 20
20.150719
 30
0.0
 10
54.985065
 20
20.150719
 30
0.0
 10
54.985065
 20
19.706713
 30
0.0
  0
LWPOLYLINE
  5
1d1
100
AcDbEntity
  8
Layer_1
 62
7
100
AcDbPolyline
 90
15
 70
0
 10
55.871234
 20
20.447572
 30
0.0
 10
56.021049
 20
20.594731
 30
0.0
 10
56.315590
 20
20.594731
 30
0.0
 10
56.465402
 20
20.447572
 30
0.0
 10
56.465402
 20
20.297879
 30
0.0
 10
56.315590
 20
20.150719
 30
0.0
 10
56.465402
 20
20.003563
 30
0.0
 10
56.465402
 20
19.853870
 30
0.0
 10
56.315590
 20
19.706713
 30
0.0
 10
56.021049
 20
19.706713
 30
0.0
 10
55.871234
 20
19.853870
 30
0.0
 10
55.871234
 20
20.003563
 30
0.0
 10
56.021049
 20
20.150719
 30
0.0
 10
55.871234
 20
20.297879
 30
0.0
 10
55.871234
 20
20.447572
 30
0.0
  0
LWPOLYLINE
  5
1d2
100
AcDbEntity
  8
Layer_1
 62
7
100
AcDbPolyline
 90
2
 70
0
 10
56.021049
 20
20.150719
 30
0.0
 10
56.315590
 20
20.150719
 30
0.0
  0
LWPOLYLINE
  5
1d3
100
AcDbEntity
  8
Layer_1
 62
7
100
AcDbPolyline
 90
9
 70
0
 10
55.822988
 20
63.554496
 30
0.0
 10
55.970263
 20
63.701653
 30
0.0
 10
56.267347
 20
63.701653
 30
0.0
 10
56.414619
 20
63.554496
 30
0.0
 10
56.414619
 20
62.960794
 30
0.0
 10
56.267347
 20
62.813635
 30
0.0
 10
55.970263
 20
62.813635
 30
0.0
 10
55.822988
 20
62.960794
 30
0.0
 10
55.822988
 20
63.554496
 30
0.0
  0
LWPOLYLINE
  5
1d4
100
AcDbEntity
  8
Layer_1
 62
7
100
AcDbPolyline
 90
7
 70
0
 10
54.934282
 20
63.701653
 30
0.0
 10
54.934282
 20
62.813635
 30
0.0
 10
55.378635
 20
62.813635
 30
0.0
 10
55.525907
 20
62.960794
 30
0.0
 10
55.525907
 20
63.554496
 30
0.0
 10
55.378635
 20
63.701653
 30
0.0
 10
54.934282
 20
63.701653
 30
0.0
  0
LWPOLYLINE
  5
1d5
100
AcDbEntity
  8
Layer_1
 62
7
100
AcDbPolyline
 90
2
 70
0
 10
54.342654
 20
63.110487
 30
0.0
 10
54.637198
 20
62.813635
 30
0.0
  0
LWPOLYLINE
  5
1d6
100
AcDbEntity
  8
Layer_1
 62
7
100
AcDbPolyline
 90
7
 70
0
 10
54.045572
 20
62.813635
 30
0.0
 10
54.045572
 20
63.701653
 30
0.0
 10
54.489926
 20
63.701653
 30
0.0
 10
54.637198
 20
63.554496
 30
0.0
 10
54.637198
 20
63.257644
 30
0.0
 10
54.489926
 20
63.110487
 30
0.0
 10
54.045572
 20
63.110487
 30
0.0
  0
LWPOLYLINE
  5
1d7
100
AcDbEntity
  8
Layer_1
 62
7
100
AcDbPolyline
 90
7
 70
0
 10
54.350271
 20
50.178410
 30
0.0
 10
54.350271
 20
51.066428
 30
0.0
 10
54.794627
 20
51.066428
 30
0.0
 10
54.941899
 20
50.919269
 30
0.0
 10
54.941899
 20
50.622417
 30
0.0
 10
54.794627
 20
50.475260
 30
0.0
 10
54.350271
 20
50.475260
 30
0.0
  0
LWPOLYLINE
  5
1d8
100
AcDbEntity
  8
Layer_1
 62
7
100
AcDbPolyline
 90
2
 70
0
 10
54.647352
 20
50.475260
 30
0.0
 10
54.941899
 20
50.178410
 30
0.0
  0
LWPOLYLINE
  5
1d9
100
AcDbEntity
  8
Layer_1
 62
7
100
AcDbPolyline
 90
7
 70
0
 10
55.238983
 20
50.178410
 30
0.0
 10
55.238983
 20
50.769576
 30
0.0
 10
55.536064
 20
51.066428
 30
0.0
 10
55.830608
 20
50.769576
 30
0.0
 10
55.830608
 20
50.178410
 30
0.0
 10
55.830608
 20
50.622417
 30
0.0
 10
55.238983
 20
50.622417
 30
0.0
  0
LWPOLYLINE
  5
1da
100
AcDbEntity
  8
Layer_1
 62
7
100
AcDbPolyline
 90
5
 70
0
 10
56.127690
 20
50.178410
 30
0.0
 10
56.422239
 20
50.178410
 30
0.0
 10
56.274964
 20
50.178410
 30
0.0
 10
56.274964
 20
51.066428
 30
0.0
 10
56.127690
 20
50.919269
 30
0.0
  0
LWPOLYLINE
  5
1db
100
AcDbEntity
  8
Layer_1
 62
7
100
AcDbPolyline
 90
7
 70
0
 10
54.070961
 20
47.590472
 30
0.0
 10
54.070961
 20
48.478490
 30
0.0
 10
54.515317
 20
48.478490
 30
0.0
 10
54.662589
 20
48.331328
 30
0.0
 10
54.662589
 20
48.034478
 30
0.0
 10
54.515317
 20
47.887322
 30
0.0
 10
54.070961
 20
47.887322
 30
0.0
  0
LWPOLYLINE
  5
1dc
100
AcDbEntity
  8
Layer_1
 62
7
100
AcDbPolyline
 90
2
 70
0
 10
54.368048
 20
47.887322
 30
0.0
 10
54.662589
 20
47.590472
 30
0.0
  0
LWPOLYLINE
  5
1dd
100
AcDbEntity
  8
Layer_1
 62
7
100
AcDbPolyline
 90
7
 70
0
 10
54.959673
 20
47.590472
 30
0.0
 10
54.959673
 20
48.181637
 30
0.0
 10
55.256757
 20
48.478490
 30
0.0
 10
55.551301
 20
48.181637
 30
0.0
 10
55.551301
 20
47.590472
 30
0.0
 10
55.551301
 20
48.034478
 30
0.0
 10
54.959673
 20
48.034478
 30
0.0
  0
LWPOLYLINE
  5
1de
100
AcDbEntity
  8
Layer_1
 62
7
100
AcDbPolyline
 90
4
 70
0
 10
56.292739
 20
47.590472
 30
0.0
 10
56.292739
 20
48.478490
 30
0.0
 10
55.848383
 20
48.034478
 30
0.0
 10
56.440014
 20
48.034478
 30
0.0
  0
LWPOLYLINE
  5
1df
100
AcDbEntity
  8
Layer_1
 62
7
100
AcDbPolyline
 90
7
 70
0
 10
54.070961
 20
45.053277
 30
0.0
 10
54.070961
 20
45.941295
 30
0.0
 10
54.515317
 20
45.941295
 30
0.0
 10
54.662589
 20
45.794142
 30
0.0
 10
54.662589
 20
45.497289
 30
0.0
 10
54.515317
 20
45.350130
 30
0.0
 10
54.070961
 20
45.350130
 30
0.0
  0
LWPOLYLINE
  5
1e0
100
AcDbEntity
  8
Layer_1
 62
7
100
AcDbPolyline
 90
2
 70
0
 10
54.368048
 20
45.350130
 30
0.0
 10
54.662589
 20
45.053277
 30
0.0
  0
LWPOLYLINE
  5
1e1
100
AcDbEntity
  8
Layer_1
 62
7
100
AcDbPolyline
 90
7
 70
0
 10
54.959673
 20
45.053277
 30
0.0
 10
54.959673
 20
45.644445
 30
0.0
 10
55.256757
 20
45.941295
 30
0.0
 10
55.551301
 20
45.644445
 30
0.0
 10
55.551301
 20
45.053277
 30
0.0
 10
55.551301
 20
45.497289
 30
0.0
 10
54.959673
 20
45.497289
 30
0.0
  0
LWPOLYLINE
  5
1e2
100
AcDbEntity
  8
Layer_1
 62
7
100
AcDbPolyline
 90
10
 70
0
 10
56.440014
 20
45.941295
 30
0.0
 10
55.848383
 20
45.941295
 30
0.0
 10
55.848383
 20
45.497289
 30
0.0
 10
56.142930
 20
45.644445
 30
0.0
 10
56.292739
 20
45.644445
 30
0.0
 10
56.440014
 20
45.497289
 30
0.0
 10
56.440014
 20
45.200437
 30
0.0
 10
56.292739
 20
45.053277
 30
0.0
 10
55.995655
 20
45.053277
 30
0.0
 10
55.848383
 20
45.200437
 30
0.0
  0
LWPOLYLINE
  5
1e3
100
AcDbEntity
  8
Layer_1
 62
7
100
AcDbPolyline
 90
2
 70
0
 10
53.969395
 20
15.063639
 30
0.0
 10
54.223310
 20
15.063639
 30
0.0
  0
LWPOLYLINE
  5
1e4
100
AcDbEntity
  8
Layer_1
 62
7
100
AcDbPolyline
 90
2
 70
0
 10
53.893220
 20
17.626213
 30
0.0
 10
54.147136
 20
17.626213
 30
0.0
  0
LWPOLYLINE
  5
1e5
100
AcDbEntity
  8
Layer_1
 62
7
100
AcDbPolyline
 90
2
 70
0
 10
6.766147
 20
20.138036
 30
0.0
 10
7.020063
 20
20.138036
 30
0.0
  0
LWPOLYLINE
  5
1e6
100
AcDbEntity
  8
Layer_1
 62
7
100
AcDbPolyline
 90
2
 70
0
 10
6.766147
 20
17.600839
 30
0.0
 10
7.020063
 20
17.600839
 30
0.0
  0
LWPOLYLINE
  5
1e7
100
AcDbEntity
  8
Layer_1
 62
7
100
AcDbPolyline
 90
2
 70
0
 10
6.766147
 20
15.063639
 30
0.0
 10
7.020063
 20
15.063639
 30
0.0
  0
LWPOLYLINE
  5
1e8
100
AcDbEntity
  8
Layer_1
 62
7
100
AcDbPolyline
 90
7
 70
0
 10
53.867826
 20
37.517811
 30
0.0
 10
53.867826
 20
38.278970
 30
0.0
 10
54.248705
 20
38.278970
 30
0.0
 10
54.375662
 20
38.152109
 30
0.0
 10
54.375662
 20
37.898394
 30
0.0
 10
54.248705
 20
37.771532
 30
0.0
 10
53.867826
 20
37.771532
 30
0.0
  0
LWPOLYLINE
  5
1e9
100
AcDbEntity
  8
Layer_1
 62
7
100
AcDbPolyline
 90
2
 70
0
 10
54.121747
 20
37.771532
 30
0.0
 10
54.375662
 20
37.517811
 30
0.0
  0
LWPOLYLINE
  5
1ea
100
AcDbEntity
  8
Layer_1
 62
7
100
AcDbPolyline
 90
7
 70
0
 10
54.629578
 20
38.278970
 30
0.0
 10
54.629578
 20
37.517811
 30
0.0
 10
55.010459
 20
37.517811
 30
0.0
 10
55.137414
 20
37.644670
 30
0.0
 10
55.137414
 20
38.152109
 30
0.0
 10
55.010459
 20
38.278970
 30
0.0
 10
54.629578
 20
38.278970
 30
0.0
  0
LWPOLYLINE
  5
1eb
100
AcDbEntity
  8
Layer_1
 62
7
100
AcDbPolyline
 90
5
 70
0
 10
55.391332
 20
37.517811
 30
0.0
 10
55.645250
 20
37.517811
 30
0.0
 10
55.518290
 20
37.517811
 30
0.0
 10
55.518290
 20
38.278970
 30
0.0
 10
55.391332
 20
38.152109
 30
0.0
  0
LWPOLYLINE
  5
1ec
100
AcDbEntity
  8
Layer_1
 62
7
100
AcDbPolyline
 90
9
 70
0
 10
56.026126
 20
38.152109
 30
0.0
 10
56.153084
 20
38.278970
 30
0.0
 10
56.407005
 20
38.278970
 30
0.0
 10
56.533963
 20
38.152109
 30
0.0
 10
56.533963
 20
37.644670
 30
0.0
 10
56.407005
 20
37.517811
 30
0.0
 10
56.153084
 20
37.517811
 30
0.0
 10
56.026126
 20
37.644670
 30
0.0
 10
56.026126
 20
38.152109
 30
0.0
  0
LWPOLYLINE
  5
1ed
100
AcDbEntity
  8
Layer_1
 62
7
100
AcDbPolyline
 90
7
 70
0
 10
54.451837
 20
14.683062
 30
0.0
 10
54.451837
 20
15.444226
 30
0.0
 10
54.832713
 20
15.444226
 30
0.0
 10
54.959673
 20
15.317368
 30
0.0
 10
54.959673
 20
15.063639
 30
0.0
 10
54.832713
 20
14.936808
 30
0.0
 10
54.451837
 20
14.936808
 30
0.0
  0
LWPOLYLINE
  5
1ee
100
AcDbEntity
  8
Layer_1
 62
7
100
AcDbPolyline
 90
2
 70
0
 10
54.705755
 20
14.936808
 30
0.0
 10
54.959673
 20
14.683062
 30
0.0
  0
LWPOLYLINE
  5
1ef
100
AcDbEntity
  8
Layer_1
 62
7
100
AcDbPolyline
 90
7
 70
0
 10
55.213591
 20
14.683062
 30
0.0
 10
55.213591
 20
15.190526
 30
0.0
 10
55.467507
 20
15.444226
 30
0.0
 10
55.721425
 20
15.190526
 30
0.0
 10
55.721425
 20
14.683062
 30
0.0
 10
55.721425
 20
15.063639
 30
0.0
 10
55.213591
 20
15.063639
 30
0.0
  0
LWPOLYLINE
  5
1f0
100
AcDbEntity
  8
Layer_1
 62
7
100
AcDbPolyline
 90
13
 70
0
 10
55.975340
 20
15.317368
 30
0.0
 10
56.102301
 20
15.444226
 30
0.0
 10
56.356216
 20
15.444226
 30
0.0
 10
56.483179
 20
15.317368
 30
0.0
 10
56.483179
 20
15.190526
 30
0.0
 10
56.356216
 20
15.063639
 30
0.0
 10
56.229258
 20
15.063639
 30
0.0
 10
56.356216
 20
15.063639
 30
0.0
 10
56.483179
 20
14.936808
 30
0.0
 10
56.483179
 20
14.809949
 30
0.0
 10
56.356216
 20
14.683062
 30
0.0
 10
56.102301
 20
14.683062
 30
0.0
 10
55.975340
 20
14.809949
 30
0.0
  0
LWPOLYLINE
  5
1f1
100
AcDbEntity
  8
Layer_1
 62
7
100
AcDbPolyline
 90
7
 70
0
 10
4.074621
 20
52.664859
 30
0.0
 10
4.074621
 20
53.426021
 30
0.0
 10
4.455497
 20
53.426021
 30
0.0
 10
4.582456
 20
53.299159
 30
0.0
 10
4.582456
 20
53.045435
 30
0.0
 10
4.455497
 20
52.918579
 30
0.0
 10
4.074621
 20
52.918579
 30
0.0
  0
LWPOLYLINE
  5
1f2
100
AcDbEntity
  8
Layer_1
 62
7
100
AcDbPolyline
 90
2
 70
0
 10
4.328539
 20
52.918579
 30
0.0
 10
4.582456
 20
52.664859
 30
0.0
  0
LWPOLYLINE
  5
1f3
100
AcDbEntity
  8
Layer_1
 62
7
100
AcDbPolyline
 90
12
 70
0
 10
4.836374
 20
53.426021
 30
0.0
 10
4.836374
 20
52.664859
 30
0.0
 10
5.217250
 20
52.664859
 30
0.0
 10
5.344209
 20
52.791720
 30
0.0
 10
5.344209
 20
52.918579
 30
0.0
 10
5.217250
 20
53.045435
 30
0.0
 10
4.836374
 20
53.045435
 30
0.0
 10
5.217250
 20
53.045435
 30
0.0
 10
5.344209
 20
53.172297
 30
0.0
 10
5.344209
 20
53.299159
 30
0.0
 10
5.217250
 20
53.426021
 30
0.0
 10
4.836374
 20
53.426021
 30
0.0
  0
LWPOLYLINE
  5
1f4
100
AcDbEntity
  8
Layer_1
 62
7
100
AcDbPolyline
 90
5
 70
0
 10
5.598126
 20
52.664859
 30
0.0
 10
5.852043
 20
52.664859
 30
0.0
 10
5.725085
 20
52.664859
 30
0.0
 10
5.725085
 20
53.426021
 30
0.0
 10
5.598126
 20
53.299159
 30
0.0
  0
LWPOLYLINE
  5
1f5
100
AcDbEntity
  8
Layer_1
 62
7
100
AcDbPolyline
 90
4
 70
0
 10
6.613796
 20
52.664859
 30
0.0
 10
6.613796
 20
53.426021
 30
0.0
 10
6.232919
 20
53.045435
 30
0.0
 10
6.740754
 20
53.045435
 30
0.0
  0
LWPOLYLINE
  5
1f6
100
AcDbEntity
  8
Layer_1
 62
7
100
AcDbPolyline
 90
7
 70
0
 10
4.176188
 20
42.592198
 30
0.0
 10
4.176188
 20
43.353357
 30
0.0
 10
4.557064
 20
43.353357
 30
0.0
 10
4.684023
 20
43.226498
 30
0.0
 10
4.684023
 20
42.972780
 30
0.0
 10
4.557064
 20
42.845921
 30
0.0
 10
4.176188
 20
42.845921
 30
0.0
  0
LWPOLYLINE
  5
1f7
100
AcDbEntity
  8
Layer_1
 62
7
100
AcDbPolyline
 90
2
 70
0
 10
4.430106
 20
42.845921
 30
0.0
 10
4.684023
 20
42.592198
 30
0.0
  0
LWPOLYLINE
  5
1f8
100
AcDbEntity
  8
Layer_1
 62
7
100
AcDbPolyline
 90
7
 70
0
 10
4.937940
 20
42.592198
 30
0.0
 10
4.937940
 20
43.099639
 30
0.0
 10
5.191858
 20
43.353357
 30
0.0
 10
5.445776
 20
43.099639
 30
0.0
 10
5.445776
 20
42.592198
 30
0.0
 10
5.445776
 20
42.972780
 30
0.0
 10
4.937940
 20
42.972780
 30
0.0
  0
LWPOLYLINE
  5
1f9
100
AcDbEntity
  8
Layer_1
 62
7
100
AcDbPolyline
 90
5
 70
0
 10
5.699693
 20
42.592198
 30
0.0
 10
5.953610
 20
42.592198
 30
0.0
 10
5.826652
 20
42.592198
 30
0.0
 10
5.826652
 20
43.353357
 30
0.0
 10
5.699693
 20
43.226498
 30
0.0
  0
LWPOLYLINE
  5
1fa
100
AcDbEntity
  8
Layer_1
 62
7
100
AcDbPolyline
 90
10
 70
0
 10
6.842321
 20
43.353357
 30
0.0
 10
6.334487
 20
43.353357
 30
0.0
 10
6.334487
 20
42.972780
 30
0.0
 10
6.588404
 20
43.099639
 30
0.0
 10
6.715362
 20
43.099639
 30
0.0
 10
6.842321
 20
42.972780
 30
0.0
 10
6.842321
 20
42.719063
 30
0.0
 10
6.715362
 20
42.592198
 30
0.0
 10
6.461446
 20
42.592198
 30
0.0
 10
6.334487
 20
42.719063
 30
0.0
  0
LWPOLYLINE
  5
1fb
100
AcDbEntity
  8
Layer_1
 62
7
100
AcDbPolyline
 90
7
 70
0
 10
4.100013
 20
24.831846
 30
0.0
 10
4.100013
 20
25.593005
 30
0.0
 10
4.480889
 20
25.593005
 30
0.0
 10
4.607848
 20
25.466144
 30
0.0
 10
4.607848
 20
25.212426
 30
0.0
 10
4.480889
 20
25.085561
 30
0.0
 10
4.100013
 20
25.085561
 30
0.0
  0
LWPOLYLINE
  5
1fc
100
AcDbEntity
  8
Layer_1
 62
7
100
AcDbPolyline
 90
2
 70
0
 10
4.353931
 20
25.085561
 30
0.0
 10
4.607848
 20
24.831846
 30
0.0
  0
LWPOLYLINE
  5
1fd
100
AcDbEntity
  8
Layer_1
 62
7
100
AcDbPolyline
 90
10
 70
0
 10
5.369601
 20
25.466144
 30
0.0
 10
5.242641
 20
25.593005
 30
0.0
 10
4.988725
 20
25.593005
 30
0.0
 10
4.861765
 20
25.466144
 30
0.0
 10
4.861765
 20
24.958702
 30
0.0
 10
4.988725
 20
24.831846
 30
0.0
 10
5.242641
 20
24.831846
 30
0.0
 10
5.369601
 20
24.958702
 30
0.0
 10
5.369601
 20
25.212426
 30
0.0
 10
5.115683
 20
25.212426
 30
0.0
  0
LWPOLYLINE
  5
1fe
100
AcDbEntity
  8
Layer_1
 62
7
100
AcDbPolyline
 90
5
 70
0
 10
5.623517
 20
24.831846
 30
0.0
 10
5.877435
 20
24.831846
 30
0.0
 10
5.750476
 20
24.831846
 30
0.0
 10
5.750476
 20
25.593005
 30
0.0
 10
5.623517
 20
25.466144
 30
0.0
  0
LWPOLYLINE
  5
1ff
100
AcDbEntity
  8
Layer_1
 62
7
100
AcDbPolyline
 90
13
 70
0
 10
6.258311
 20
25.466144
 30
0.0
 10
6.385270
 20
25.593005
 30
0.0
 10
6.639187
 20
25.593005
 30
0.0
 10
6.766147
 20
25.466144
 30
0.0
 10
6.766147
 20
25.339285
 30
0.0
 10
6.639187
 20
25.212426
 30
0.0
 10
6.512229
 20
25.212426
 30
0.0
 10
6.639187
 20
25.212426
 30
0.0
 10
6.766147
 20
25.085561
 30
0.0
 10
6.766147
 20
24.958702
 30
0.0
 10
6.639187
 20
24.831846
 30
0.0
 10
6.385270
 20
24.831846
 30
0.0
 10
6.258311
 20
24.958702
 30
0.0
  0
LWPOLYLINE
  5
200
100
AcDbEntity
  8
Layer_1
 62
7
100
AcDbPolyline
 90
7
 70
0
 10
4.176188
 20
27.292923
 30
0.0
 10
4.176188
 20
28.054082
 30
0.0
 10
4.557064
 20
28.054082
 30
0.0
 10
4.684023
 20
27.927220
 30
0.0
 10
4.684023
 20
27.673500
 30
0.0
 10
4.557064
 20
27.546638
 30
0.0
 10
4.176188
 20
27.546638
 30
0.0
  0
LWPOLYLINE
  5
201
100
AcDbEntity
  8
Layer_1
 62
7
100
AcDbPolyline
 90
2
 70
0
 10
4.430106
 20
27.546638
 30
0.0
 10
4.684023
 20
27.292923
 30
0.0
  0
LWPOLYLINE
  5
202
100
AcDbEntity
  8
Layer_1
 62
7
100
AcDbPolyline
 90
10
 70
0
 10
5.445776
 20
27.927220
 30
0.0
 10
5.318817
 20
28.054082
 30
0.0
 10
5.064899
 20
28.054082
 30
0.0
 10
4.937940
 20
27.927220
 30
0.0
 10
4.937940
 20
27.419782
 30
0.0
 10
5.064899
 20
27.292923
 30
0.0
 10
5.318817
 20
27.292923
 30
0.0
 10
5.445776
 20
27.419782
 30
0.0
 10
5.445776
 20
27.673500
 30
0.0
 10
5.191858
 20
27.673500
 30
0.0
  0
LWPOLYLINE
  5
203
100
AcDbEntity
  8
Layer_1
 62
7
100
AcDbPolyline
 90
5
 70
0
 10
5.699693
 20
27.292923
 30
0.0
 10
5.953610
 20
27.292923
 30
0.0
 10
5.826652
 20
27.292923
 30
0.0
 10
5.826652
 20
28.054082
 30
0.0
 10
5.699693
 20
27.927220
 30
0.0
  0
LWPOLYLINE
  5
204
100
AcDbEntity
  8
Layer_1
 62
7
100
AcDbPolyline
 90
7
 70
0
 10
6.842321
 20
27.292923
 30
0.0
 10
6.334487
 20
27.292923
 30
0.0
 10
6.842321
 20
27.800358
 30
0.0
 10
6.842321
 20
27.927220
 30
0.0
 10
6.715362
 20
28.054082
 30
0.0
 10
6.461446
 20
28.054082
 30
0.0
 10
6.334487
 20
27.927220
 30
0.0
  0
LWPOLYLINE
  5
205
100
AcDbEntity
  8
Layer_1
 62
7
100
AcDbPolyline
 90
7
 70
0
 10
54.426445
 20
17.245637
 30
0.0
 10
54.426445
 20
18.006793
 30
0.0
 10
54.807327
 20
18.006793
 30
0.0
 10
54.934282
 20
17.879934
 30
0.0
 10
54.934282
 20
17.626213
 30
0.0
 10
54.807327
 20
17.499352
 30
0.0
 10
54.426445
 20
17.499352
 30
0.0
  0
LWPOLYLINE
  5
206
100
AcDbEntity
  8
Layer_1
 62
7
100
AcDbPolyline
 90
2
 70
0
 10
54.680361
 20
17.499352
 30
0.0
 10
54.934282
 20
17.245637
 30
0.0
  0
LWPOLYLINE
  5
207
100
AcDbEntity
  8
Layer_1
 62
7
100
AcDbPolyline
 90
7
 70
0
 10
55.188200
 20
17.245637
 30
0.0
 10
55.188200
 20
17.753072
 30
0.0
 10
55.442115
 20
18.006793
 30
0.0
 10
55.696031
 20
17.753072
 30
0.0
 10
55.696031
 20
17.245637
 30
0.0
 10
55.696031
 20
17.626213
 30
0.0
 10
55.188200
 20
17.626213
 30
0.0
  0
LWPOLYLINE
  5
208
100
AcDbEntity
  8
Layer_1
 62
7
100
AcDbPolyline
 90
7
 70
0
 10
56.457785
 20
17.245637
 30
0.0
 10
55.949952
 20
17.245637
 30
0.0
 10
56.457785
 20
17.753072
 30
0.0
 10
56.457785
 20
17.879934
 30
0.0
 10
56.330825
 20
18.006793
 30
0.0
 10
56.076909
 20
18.006793
 30
0.0
 10
55.949952
 20
17.879934
 30
0.0
  0
LWPOLYLINE
  5
209
100
AcDbEntity
  8
Layer_1
 62
7
100
AcDbPolyline
 90
12
 70
0
 10
52.217365
 20
15.317368
 30
0.0
 10
52.090407
 20
15.444226
 30
0.0
 10
51.836487
 20
15.444226
 30
0.0
 10
51.709529
 20
15.317368
 30
0.0
 10
51.709529
 20
15.190526
 30
0.0
 10
51.836487
 20
15.063639
 30
0.0
 10
52.090407
 20
15.063639
 30
0.0
 10
52.217365
 20
14.936808
 30
0.0
 10
52.217365
 20
14.809949
 30
0.0
 10
52.090407
 20
14.683062
 30
0.0
 10
51.836487
 20
14.683062
 30
0.0
 10
51.709529
 20
14.809949
 30
0.0
  0
LWPOLYLINE
  5
20a
100
AcDbEntity
  8
Layer_1
 62
7
100
AcDbPolyline
 90
7
 70
0
 10
52.471280
 20
15.444226
 30
0.0
 10
52.471280
 20
14.683062
 30
0.0
 10
52.852156
 20
14.683062
 30
0.0
 10
52.979117
 20
14.809949
 30
0.0
 10
52.979117
 20
15.317368
 30
0.0
 10
52.852156
 20
15.444226
 30
0.0
 10
52.471280
 20
15.444226
 30
0.0
  0
LWPOLYLINE
  5
20b
100
AcDbEntity
  8
Layer_1
 62
7
100
AcDbPolyline
 90
7
 70
0
 10
53.233035
 20
14.683062
 30
0.0
 10
53.233035
 20
15.190526
 30
0.0
 10
53.486953
 20
15.444226
 30
0.0
 10
53.740868
 20
15.190526
 30
0.0
 10
53.740868
 20
14.683062
 30
0.0
 10
53.740868
 20
15.063639
 30
0.0
 10
53.233035
 20
15.063639
 30
0.0
  0
LWPOLYLINE
  5
20c
100
AcDbEntity
  8
Layer_1
 62
7
100
AcDbPolyline
 90
12
 70
0
 10
52.293540
 20
17.879934
 30
0.0
 10
52.166579
 20
18.006793
 30
0.0
 10
51.912661
 20
18.006793
 30
0.0
 10
51.785703
 20
17.879934
 30
0.0
 10
51.785703
 20
17.753072
 30
0.0
 10
51.912661
 20
17.626213
 30
0.0
 10
52.166579
 20
17.626213
 30
0.0
 10
52.293540
 20
17.499352
 30
0.0
 10
52.293540
 20
17.372496
 30
0.0
 10
52.166579
 20
17.245637
 30
0.0
 10
51.912661
 20
17.245637
 30
0.0
 10
51.785703
 20
17.372496
 30
0.0
  0
LWPOLYLINE
  5
20d
100
AcDbEntity
  8
Layer_1
 62
7
100
AcDbPolyline
 90
8
 70
0
 10
53.055294
 20
17.879934
 30
0.0
 10
52.928331
 20
18.006793
 30
0.0
 10
52.674413
 20
18.006793
 30
0.0
 10
52.547455
 20
17.879934
 30
0.0
 10
52.547455
 20
17.372496
 30
0.0
 10
52.674413
 20
17.245637
 30
0.0
 10
52.928331
 20
17.245637
 30
0.0
 10
53.055294
 20
17.372496
 30
0.0
  0
LWPOLYLINE
  5
20e
100
AcDbEntity
  8
Layer_1
 62
7
100
AcDbPolyline
 90
3
 70
0
 10
53.309210
 20
18.006793
 30
0.0
 10
53.309210
 20
17.245637
 30
0.0
 10
53.817046
 20
17.245637
 30
0.0
  0
LWPOLYLINE
  5
20f
100
AcDbEntity
  8
Layer_1
 62
7
100
AcDbPolyline
 90
2
 70
0
 10
0.023903
 20
0.023762
 30
0.0
 10
60.677589
 20
0.042389
 30
0.0
  0
LWPOLYLINE
  5
210
100
AcDbEntity
  8
Layer_1
 62
7
100
AcDbPolyline
 90
2
 70
0
 10
0.023903
 20
80.763908
 30
0.0
 10
60.677586
 20
80.782382
 30
0.0
  0
LWPOLYLINE
  5
211
100
AcDbEntity
  8
Layer_1
 62
7
100
AcDbPolyline
 90
2
 70
0
 10
60.678433
 20
80.748233
 30
0.0
 10
60.678433
 20
0.058730
 30
0.0
  0
LWPOLYLINE
  5
212
100
AcDbEntity
  8
Layer_1
 62
7
100
AcDbPolyline
 90
2
 70
0
 10
0.025043
 20
80.697261
 30
0.0
 10
0.025043
 20
0.058701
 30
0.0
  0
ENDSEC
  0
SECTION
  2
OBJECTS
  0
DICTIONARY
  5
C
330
0
100
AcDbDictionary
  3
ACAD_GROUP
350
D
  3
ACAD_MLINESTYLE
350
17
  0
DICTIONARY
  5
D
330
C
100
AcDbDictionary
  0
DICTIONARY
  5
1A
330
C
100
AcDbDictionary
  0
DICTIONARY
  5
17
330
C
100
AcDbDictionary
  3
STANDARD
350
18
  0
DICTIONARY
  5
19
330
C
100
AcDbDictionary
  0
ENDSEC
  0
EOF
